<?xml version="1.0" encoding="utf-8" standalone="no"?>
<!DOCTYPE svg PUBLIC "-//W3C//DTD SVG 1.1//EN"
  "http://www.w3.org/Graphics/SVG/1.1/DTD/svg11.dtd">
<svg xmlns:xlink="http://www.w3.org/1999/xlink" width="460.8pt" height="345.6pt" viewBox="0 0 460.8 345.6" xmlns="http://www.w3.org/2000/svg" version="1.1">
 <metadata>
  <rdf:RDF xmlns:dc="http://purl.org/dc/elements/1.1/" xmlns:cc="http://creativecommons.org/ns#" xmlns:rdf="http://www.w3.org/1999/02/22-rdf-syntax-ns#">
   <cc:Work>
    <dc:type rdf:resource="http://purl.org/dc/dcmitype/StillImage"/>
    <dc:date>2024-11-13T11:33:09.981101</dc:date>
    <dc:format>image/svg+xml</dc:format>
    <dc:creator>
     <cc:Agent>
      <dc:title>Matplotlib v3.8.4, https://matplotlib.org/</dc:title>
     </cc:Agent>
    </dc:creator>
   </cc:Work>
  </rdf:RDF>
 </metadata>
 <defs>
  <style type="text/css">*{stroke-linejoin: round; stroke-linecap: butt}</style>
 </defs>
 <g id="figure_1">
  <g id="patch_1">
   <path d="M 0 345.6 
L 460.8 345.6 
L 460.8 0 
L 0 0 
z
" style="fill: #ffffff"/>
  </g>
  <g id="axes_1">
   <g id="patch_2">
    <path d="M 252.392727 307.584 
L 414.72 307.584 
L 414.72 41.472 
L 252.392727 41.472 
z
" style="fill: #ffffff"/>
   </g>
   <g id="matplotlib.axis_1">
    <g id="xtick_1">
     <g id="line2d_1">
      <defs>
       <path id="m29fae39d0d" d="M 0 0 
L 0 3.5 
" style="stroke: #000000; stroke-width: 0.8"/>
      </defs>
      <g>
       <use xlink:href="#m29fae39d0d" x="259.77124" y="307.584" style="stroke: #000000; stroke-width: 0.8"/>
      </g>
     </g>
     <g id="text_1">
      <!-- 0 -->
      <g transform="translate(256.58999 322.182437) scale(0.1 -0.1)">
       <defs>
        <path id="DejaVuSans-30" d="M 2034 4250 
Q 1547 4250 1301 3770 
Q 1056 3291 1056 2328 
Q 1056 1369 1301 889 
Q 1547 409 2034 409 
Q 2525 409 2770 889 
Q 3016 1369 3016 2328 
Q 3016 3291 2770 3770 
Q 2525 4250 2034 4250 
z
M 2034 4750 
Q 2819 4750 3233 4129 
Q 3647 3509 3647 2328 
Q 3647 1150 3233 529 
Q 2819 -91 2034 -91 
Q 1250 -91 836 529 
Q 422 1150 422 2328 
Q 422 3509 836 4129 
Q 1250 4750 2034 4750 
z
" transform="scale(0.015625)"/>
       </defs>
       <use xlink:href="#DejaVuSans-30"/>
      </g>
     </g>
    </g>
    <g id="xtick_2">
     <g id="line2d_2">
      <g>
       <use xlink:href="#m29fae39d0d" x="293.378675" y="307.584" style="stroke: #000000; stroke-width: 0.8"/>
      </g>
     </g>
     <g id="text_2">
      <!-- 1000 -->
      <g transform="translate(280.653675 322.182437) scale(0.1 -0.1)">
       <defs>
        <path id="DejaVuSans-31" d="M 794 531 
L 1825 531 
L 1825 4091 
L 703 3866 
L 703 4441 
L 1819 4666 
L 2450 4666 
L 2450 531 
L 3481 531 
L 3481 0 
L 794 0 
L 794 531 
z
" transform="scale(0.015625)"/>
       </defs>
       <use xlink:href="#DejaVuSans-31"/>
       <use xlink:href="#DejaVuSans-30" x="63.623047"/>
       <use xlink:href="#DejaVuSans-30" x="127.246094"/>
       <use xlink:href="#DejaVuSans-30" x="190.869141"/>
      </g>
     </g>
    </g>
    <g id="xtick_3">
     <g id="line2d_3">
      <g>
       <use xlink:href="#m29fae39d0d" x="326.98611" y="307.584" style="stroke: #000000; stroke-width: 0.8"/>
      </g>
     </g>
     <g id="text_3">
      <!-- 2000 -->
      <g transform="translate(314.26111 322.182437) scale(0.1 -0.1)">
       <defs>
        <path id="DejaVuSans-32" d="M 1228 531 
L 3431 531 
L 3431 0 
L 469 0 
L 469 531 
Q 828 903 1448 1529 
Q 2069 2156 2228 2338 
Q 2531 2678 2651 2914 
Q 2772 3150 2772 3378 
Q 2772 3750 2511 3984 
Q 2250 4219 1831 4219 
Q 1534 4219 1204 4116 
Q 875 4013 500 3803 
L 500 4441 
Q 881 4594 1212 4672 
Q 1544 4750 1819 4750 
Q 2544 4750 2975 4387 
Q 3406 4025 3406 3419 
Q 3406 3131 3298 2873 
Q 3191 2616 2906 2266 
Q 2828 2175 2409 1742 
Q 1991 1309 1228 531 
z
" transform="scale(0.015625)"/>
       </defs>
       <use xlink:href="#DejaVuSans-32"/>
       <use xlink:href="#DejaVuSans-30" x="63.623047"/>
       <use xlink:href="#DejaVuSans-30" x="127.246094"/>
       <use xlink:href="#DejaVuSans-30" x="190.869141"/>
      </g>
     </g>
    </g>
    <g id="xtick_4">
     <g id="line2d_4">
      <g>
       <use xlink:href="#m29fae39d0d" x="360.593545" y="307.584" style="stroke: #000000; stroke-width: 0.8"/>
      </g>
     </g>
     <g id="text_4">
      <!-- 3000 -->
      <g transform="translate(347.868545 322.182437) scale(0.1 -0.1)">
       <defs>
        <path id="DejaVuSans-33" d="M 2597 2516 
Q 3050 2419 3304 2112 
Q 3559 1806 3559 1356 
Q 3559 666 3084 287 
Q 2609 -91 1734 -91 
Q 1441 -91 1130 -33 
Q 819 25 488 141 
L 488 750 
Q 750 597 1062 519 
Q 1375 441 1716 441 
Q 2309 441 2620 675 
Q 2931 909 2931 1356 
Q 2931 1769 2642 2001 
Q 2353 2234 1838 2234 
L 1294 2234 
L 1294 2753 
L 1863 2753 
Q 2328 2753 2575 2939 
Q 2822 3125 2822 3475 
Q 2822 3834 2567 4026 
Q 2313 4219 1838 4219 
Q 1578 4219 1281 4162 
Q 984 4106 628 3988 
L 628 4550 
Q 988 4650 1302 4700 
Q 1616 4750 1894 4750 
Q 2613 4750 3031 4423 
Q 3450 4097 3450 3541 
Q 3450 3153 3228 2886 
Q 3006 2619 2597 2516 
z
" transform="scale(0.015625)"/>
       </defs>
       <use xlink:href="#DejaVuSans-33"/>
       <use xlink:href="#DejaVuSans-30" x="63.623047"/>
       <use xlink:href="#DejaVuSans-30" x="127.246094"/>
       <use xlink:href="#DejaVuSans-30" x="190.869141"/>
      </g>
     </g>
    </g>
    <g id="xtick_5">
     <g id="line2d_5">
      <g>
       <use xlink:href="#m29fae39d0d" x="394.20098" y="307.584" style="stroke: #000000; stroke-width: 0.8"/>
      </g>
     </g>
     <g id="text_5">
      <!-- 4000 -->
      <g transform="translate(381.47598 322.182437) scale(0.1 -0.1)">
       <defs>
        <path id="DejaVuSans-34" d="M 2419 4116 
L 825 1625 
L 2419 1625 
L 2419 4116 
z
M 2253 4666 
L 3047 4666 
L 3047 1625 
L 3713 1625 
L 3713 1100 
L 3047 1100 
L 3047 0 
L 2419 0 
L 2419 1100 
L 313 1100 
L 313 1709 
L 2253 4666 
z
" transform="scale(0.015625)"/>
       </defs>
       <use xlink:href="#DejaVuSans-34"/>
       <use xlink:href="#DejaVuSans-30" x="63.623047"/>
       <use xlink:href="#DejaVuSans-30" x="127.246094"/>
       <use xlink:href="#DejaVuSans-30" x="190.869141"/>
      </g>
     </g>
    </g>
    <g id="text_6">
     <!-- Observations (time) -->
     <g transform="translate(283.717301 335.860562) scale(0.1 -0.1)">
      <defs>
       <path id="DejaVuSans-4f" d="M 2522 4238 
Q 1834 4238 1429 3725 
Q 1025 3213 1025 2328 
Q 1025 1447 1429 934 
Q 1834 422 2522 422 
Q 3209 422 3611 934 
Q 4013 1447 4013 2328 
Q 4013 3213 3611 3725 
Q 3209 4238 2522 4238 
z
M 2522 4750 
Q 3503 4750 4090 4092 
Q 4678 3434 4678 2328 
Q 4678 1225 4090 567 
Q 3503 -91 2522 -91 
Q 1538 -91 948 565 
Q 359 1222 359 2328 
Q 359 3434 948 4092 
Q 1538 4750 2522 4750 
z
" transform="scale(0.015625)"/>
       <path id="DejaVuSans-62" d="M 3116 1747 
Q 3116 2381 2855 2742 
Q 2594 3103 2138 3103 
Q 1681 3103 1420 2742 
Q 1159 2381 1159 1747 
Q 1159 1113 1420 752 
Q 1681 391 2138 391 
Q 2594 391 2855 752 
Q 3116 1113 3116 1747 
z
M 1159 2969 
Q 1341 3281 1617 3432 
Q 1894 3584 2278 3584 
Q 2916 3584 3314 3078 
Q 3713 2572 3713 1747 
Q 3713 922 3314 415 
Q 2916 -91 2278 -91 
Q 1894 -91 1617 61 
Q 1341 213 1159 525 
L 1159 0 
L 581 0 
L 581 4863 
L 1159 4863 
L 1159 2969 
z
" transform="scale(0.015625)"/>
       <path id="DejaVuSans-73" d="M 2834 3397 
L 2834 2853 
Q 2591 2978 2328 3040 
Q 2066 3103 1784 3103 
Q 1356 3103 1142 2972 
Q 928 2841 928 2578 
Q 928 2378 1081 2264 
Q 1234 2150 1697 2047 
L 1894 2003 
Q 2506 1872 2764 1633 
Q 3022 1394 3022 966 
Q 3022 478 2636 193 
Q 2250 -91 1575 -91 
Q 1294 -91 989 -36 
Q 684 19 347 128 
L 347 722 
Q 666 556 975 473 
Q 1284 391 1588 391 
Q 1994 391 2212 530 
Q 2431 669 2431 922 
Q 2431 1156 2273 1281 
Q 2116 1406 1581 1522 
L 1381 1569 
Q 847 1681 609 1914 
Q 372 2147 372 2553 
Q 372 3047 722 3315 
Q 1072 3584 1716 3584 
Q 2034 3584 2315 3537 
Q 2597 3491 2834 3397 
z
" transform="scale(0.015625)"/>
       <path id="DejaVuSans-65" d="M 3597 1894 
L 3597 1613 
L 953 1613 
Q 991 1019 1311 708 
Q 1631 397 2203 397 
Q 2534 397 2845 478 
Q 3156 559 3463 722 
L 3463 178 
Q 3153 47 2828 -22 
Q 2503 -91 2169 -91 
Q 1331 -91 842 396 
Q 353 884 353 1716 
Q 353 2575 817 3079 
Q 1281 3584 2069 3584 
Q 2775 3584 3186 3129 
Q 3597 2675 3597 1894 
z
M 3022 2063 
Q 3016 2534 2758 2815 
Q 2500 3097 2075 3097 
Q 1594 3097 1305 2825 
Q 1016 2553 972 2059 
L 3022 2063 
z
" transform="scale(0.015625)"/>
       <path id="DejaVuSans-72" d="M 2631 2963 
Q 2534 3019 2420 3045 
Q 2306 3072 2169 3072 
Q 1681 3072 1420 2755 
Q 1159 2438 1159 1844 
L 1159 0 
L 581 0 
L 581 3500 
L 1159 3500 
L 1159 2956 
Q 1341 3275 1631 3429 
Q 1922 3584 2338 3584 
Q 2397 3584 2469 3576 
Q 2541 3569 2628 3553 
L 2631 2963 
z
" transform="scale(0.015625)"/>
       <path id="DejaVuSans-76" d="M 191 3500 
L 800 3500 
L 1894 563 
L 2988 3500 
L 3597 3500 
L 2284 0 
L 1503 0 
L 191 3500 
z
" transform="scale(0.015625)"/>
       <path id="DejaVuSans-61" d="M 2194 1759 
Q 1497 1759 1228 1600 
Q 959 1441 959 1056 
Q 959 750 1161 570 
Q 1363 391 1709 391 
Q 2188 391 2477 730 
Q 2766 1069 2766 1631 
L 2766 1759 
L 2194 1759 
z
M 3341 1997 
L 3341 0 
L 2766 0 
L 2766 531 
Q 2569 213 2275 61 
Q 1981 -91 1556 -91 
Q 1019 -91 701 211 
Q 384 513 384 1019 
Q 384 1609 779 1909 
Q 1175 2209 1959 2209 
L 2766 2209 
L 2766 2266 
Q 2766 2663 2505 2880 
Q 2244 3097 1772 3097 
Q 1472 3097 1187 3025 
Q 903 2953 641 2809 
L 641 3341 
Q 956 3463 1253 3523 
Q 1550 3584 1831 3584 
Q 2591 3584 2966 3190 
Q 3341 2797 3341 1997 
z
" transform="scale(0.015625)"/>
       <path id="DejaVuSans-74" d="M 1172 4494 
L 1172 3500 
L 2356 3500 
L 2356 3053 
L 1172 3053 
L 1172 1153 
Q 1172 725 1289 603 
Q 1406 481 1766 481 
L 2356 481 
L 2356 0 
L 1766 0 
Q 1100 0 847 248 
Q 594 497 594 1153 
L 594 3053 
L 172 3053 
L 172 3500 
L 594 3500 
L 594 4494 
L 1172 4494 
z
" transform="scale(0.015625)"/>
       <path id="DejaVuSans-69" d="M 603 3500 
L 1178 3500 
L 1178 0 
L 603 0 
L 603 3500 
z
M 603 4863 
L 1178 4863 
L 1178 4134 
L 603 4134 
L 603 4863 
z
" transform="scale(0.015625)"/>
       <path id="DejaVuSans-6f" d="M 1959 3097 
Q 1497 3097 1228 2736 
Q 959 2375 959 1747 
Q 959 1119 1226 758 
Q 1494 397 1959 397 
Q 2419 397 2687 759 
Q 2956 1122 2956 1747 
Q 2956 2369 2687 2733 
Q 2419 3097 1959 3097 
z
M 1959 3584 
Q 2709 3584 3137 3096 
Q 3566 2609 3566 1747 
Q 3566 888 3137 398 
Q 2709 -91 1959 -91 
Q 1206 -91 779 398 
Q 353 888 353 1747 
Q 353 2609 779 3096 
Q 1206 3584 1959 3584 
z
" transform="scale(0.015625)"/>
       <path id="DejaVuSans-6e" d="M 3513 2113 
L 3513 0 
L 2938 0 
L 2938 2094 
Q 2938 2591 2744 2837 
Q 2550 3084 2163 3084 
Q 1697 3084 1428 2787 
Q 1159 2491 1159 1978 
L 1159 0 
L 581 0 
L 581 3500 
L 1159 3500 
L 1159 2956 
Q 1366 3272 1645 3428 
Q 1925 3584 2291 3584 
Q 2894 3584 3203 3211 
Q 3513 2838 3513 2113 
z
" transform="scale(0.015625)"/>
       <path id="DejaVuSans-20" transform="scale(0.015625)"/>
       <path id="DejaVuSans-28" d="M 1984 4856 
Q 1566 4138 1362 3434 
Q 1159 2731 1159 2009 
Q 1159 1288 1364 580 
Q 1569 -128 1984 -844 
L 1484 -844 
Q 1016 -109 783 600 
Q 550 1309 550 2009 
Q 550 2706 781 3412 
Q 1013 4119 1484 4856 
L 1984 4856 
z
" transform="scale(0.015625)"/>
       <path id="DejaVuSans-6d" d="M 3328 2828 
Q 3544 3216 3844 3400 
Q 4144 3584 4550 3584 
Q 5097 3584 5394 3201 
Q 5691 2819 5691 2113 
L 5691 0 
L 5113 0 
L 5113 2094 
Q 5113 2597 4934 2840 
Q 4756 3084 4391 3084 
Q 3944 3084 3684 2787 
Q 3425 2491 3425 1978 
L 3425 0 
L 2847 0 
L 2847 2094 
Q 2847 2600 2669 2842 
Q 2491 3084 2119 3084 
Q 1678 3084 1418 2786 
Q 1159 2488 1159 1978 
L 1159 0 
L 581 0 
L 581 3500 
L 1159 3500 
L 1159 2956 
Q 1356 3278 1631 3431 
Q 1906 3584 2284 3584 
Q 2666 3584 2933 3390 
Q 3200 3197 3328 2828 
z
" transform="scale(0.015625)"/>
       <path id="DejaVuSans-29" d="M 513 4856 
L 1013 4856 
Q 1481 4119 1714 3412 
Q 1947 2706 1947 2009 
Q 1947 1309 1714 600 
Q 1481 -109 1013 -844 
L 513 -844 
Q 928 -128 1133 580 
Q 1338 1288 1338 2009 
Q 1338 2731 1133 3434 
Q 928 4138 513 4856 
z
" transform="scale(0.015625)"/>
      </defs>
      <use xlink:href="#DejaVuSans-4f"/>
      <use xlink:href="#DejaVuSans-62" x="78.710938"/>
      <use xlink:href="#DejaVuSans-73" x="142.1875"/>
      <use xlink:href="#DejaVuSans-65" x="194.287109"/>
      <use xlink:href="#DejaVuSans-72" x="255.810547"/>
      <use xlink:href="#DejaVuSans-76" x="296.923828"/>
      <use xlink:href="#DejaVuSans-61" x="356.103516"/>
      <use xlink:href="#DejaVuSans-74" x="417.382812"/>
      <use xlink:href="#DejaVuSans-69" x="456.591797"/>
      <use xlink:href="#DejaVuSans-6f" x="484.375"/>
      <use xlink:href="#DejaVuSans-6e" x="545.556641"/>
      <use xlink:href="#DejaVuSans-73" x="608.935547"/>
      <use xlink:href="#DejaVuSans-20" x="661.035156"/>
      <use xlink:href="#DejaVuSans-28" x="692.822266"/>
      <use xlink:href="#DejaVuSans-74" x="731.835938"/>
      <use xlink:href="#DejaVuSans-69" x="771.044922"/>
      <use xlink:href="#DejaVuSans-6d" x="798.828125"/>
      <use xlink:href="#DejaVuSans-65" x="896.240234"/>
      <use xlink:href="#DejaVuSans-29" x="957.763672"/>
     </g>
    </g>
   </g>
   <g id="matplotlib.axis_2">
    <g id="ytick_1">
     <g id="line2d_6">
      <defs>
       <path id="mb1a61c921b" d="M 0 0 
L -3.5 0 
" style="stroke: #000000; stroke-width: 0.8"/>
      </defs>
      <g>
       <use xlink:href="#mb1a61c921b" x="252.392727" y="305.542047" style="stroke: #000000; stroke-width: 0.8"/>
      </g>
     </g>
     <g id="text_7">
      <!-- −20 -->
      <g transform="translate(224.28804 309.341265) scale(0.1 -0.1)">
       <defs>
        <path id="DejaVuSans-2212" d="M 678 2272 
L 4684 2272 
L 4684 1741 
L 678 1741 
L 678 2272 
z
" transform="scale(0.015625)"/>
       </defs>
       <use xlink:href="#DejaVuSans-2212"/>
       <use xlink:href="#DejaVuSans-32" x="83.789062"/>
       <use xlink:href="#DejaVuSans-30" x="147.412109"/>
      </g>
     </g>
    </g>
    <g id="ytick_2">
     <g id="line2d_7">
      <g>
       <use xlink:href="#mb1a61c921b" x="252.392727" y="269.892069" style="stroke: #000000; stroke-width: 0.8"/>
      </g>
     </g>
     <g id="text_8">
      <!-- 0 -->
      <g transform="translate(239.030227 273.691287) scale(0.1 -0.1)">
       <use xlink:href="#DejaVuSans-30"/>
      </g>
     </g>
    </g>
    <g id="ytick_3">
     <g id="line2d_8">
      <g>
       <use xlink:href="#mb1a61c921b" x="252.392727" y="234.24209" style="stroke: #000000; stroke-width: 0.8"/>
      </g>
     </g>
     <g id="text_9">
      <!-- 20 -->
      <g transform="translate(232.667727 238.041309) scale(0.1 -0.1)">
       <use xlink:href="#DejaVuSans-32"/>
       <use xlink:href="#DejaVuSans-30" x="63.623047"/>
      </g>
     </g>
    </g>
    <g id="ytick_4">
     <g id="line2d_9">
      <g>
       <use xlink:href="#mb1a61c921b" x="252.392727" y="198.592112" style="stroke: #000000; stroke-width: 0.8"/>
      </g>
     </g>
     <g id="text_10">
      <!-- 40 -->
      <g transform="translate(232.667727 202.391331) scale(0.1 -0.1)">
       <use xlink:href="#DejaVuSans-34"/>
       <use xlink:href="#DejaVuSans-30" x="63.623047"/>
      </g>
     </g>
    </g>
    <g id="ytick_5">
     <g id="line2d_10">
      <g>
       <use xlink:href="#mb1a61c921b" x="252.392727" y="162.942134" style="stroke: #000000; stroke-width: 0.8"/>
      </g>
     </g>
     <g id="text_11">
      <!-- 60 -->
      <g transform="translate(232.667727 166.741353) scale(0.1 -0.1)">
       <defs>
        <path id="DejaVuSans-36" d="M 2113 2584 
Q 1688 2584 1439 2293 
Q 1191 2003 1191 1497 
Q 1191 994 1439 701 
Q 1688 409 2113 409 
Q 2538 409 2786 701 
Q 3034 994 3034 1497 
Q 3034 2003 2786 2293 
Q 2538 2584 2113 2584 
z
M 3366 4563 
L 3366 3988 
Q 3128 4100 2886 4159 
Q 2644 4219 2406 4219 
Q 1781 4219 1451 3797 
Q 1122 3375 1075 2522 
Q 1259 2794 1537 2939 
Q 1816 3084 2150 3084 
Q 2853 3084 3261 2657 
Q 3669 2231 3669 1497 
Q 3669 778 3244 343 
Q 2819 -91 2113 -91 
Q 1303 -91 875 529 
Q 447 1150 447 2328 
Q 447 3434 972 4092 
Q 1497 4750 2381 4750 
Q 2619 4750 2861 4703 
Q 3103 4656 3366 4563 
z
" transform="scale(0.015625)"/>
       </defs>
       <use xlink:href="#DejaVuSans-36"/>
       <use xlink:href="#DejaVuSans-30" x="63.623047"/>
      </g>
     </g>
    </g>
    <g id="ytick_6">
     <g id="line2d_11">
      <g>
       <use xlink:href="#mb1a61c921b" x="252.392727" y="127.292156" style="stroke: #000000; stroke-width: 0.8"/>
      </g>
     </g>
     <g id="text_12">
      <!-- 80 -->
      <g transform="translate(232.667727 131.091375) scale(0.1 -0.1)">
       <defs>
        <path id="DejaVuSans-38" d="M 2034 2216 
Q 1584 2216 1326 1975 
Q 1069 1734 1069 1313 
Q 1069 891 1326 650 
Q 1584 409 2034 409 
Q 2484 409 2743 651 
Q 3003 894 3003 1313 
Q 3003 1734 2745 1975 
Q 2488 2216 2034 2216 
z
M 1403 2484 
Q 997 2584 770 2862 
Q 544 3141 544 3541 
Q 544 4100 942 4425 
Q 1341 4750 2034 4750 
Q 2731 4750 3128 4425 
Q 3525 4100 3525 3541 
Q 3525 3141 3298 2862 
Q 3072 2584 2669 2484 
Q 3125 2378 3379 2068 
Q 3634 1759 3634 1313 
Q 3634 634 3220 271 
Q 2806 -91 2034 -91 
Q 1263 -91 848 271 
Q 434 634 434 1313 
Q 434 1759 690 2068 
Q 947 2378 1403 2484 
z
M 1172 3481 
Q 1172 3119 1398 2916 
Q 1625 2713 2034 2713 
Q 2441 2713 2670 2916 
Q 2900 3119 2900 3481 
Q 2900 3844 2670 4047 
Q 2441 4250 2034 4250 
Q 1625 4250 1398 4047 
Q 1172 3844 1172 3481 
z
" transform="scale(0.015625)"/>
       </defs>
       <use xlink:href="#DejaVuSans-38"/>
       <use xlink:href="#DejaVuSans-30" x="63.623047"/>
      </g>
     </g>
    </g>
    <g id="ytick_7">
     <g id="line2d_12">
      <g>
       <use xlink:href="#mb1a61c921b" x="252.392727" y="91.642178" style="stroke: #000000; stroke-width: 0.8"/>
      </g>
     </g>
     <g id="text_13">
      <!-- 100 -->
      <g transform="translate(226.305227 95.441397) scale(0.1 -0.1)">
       <use xlink:href="#DejaVuSans-31"/>
       <use xlink:href="#DejaVuSans-30" x="63.623047"/>
       <use xlink:href="#DejaVuSans-30" x="127.246094"/>
      </g>
     </g>
    </g>
    <g id="ytick_8">
     <g id="line2d_13">
      <g>
       <use xlink:href="#mb1a61c921b" x="252.392727" y="55.9922" style="stroke: #000000; stroke-width: 0.8"/>
      </g>
     </g>
     <g id="text_14">
      <!-- 120 -->
      <g transform="translate(226.305227 59.791419) scale(0.1 -0.1)">
       <use xlink:href="#DejaVuSans-31"/>
       <use xlink:href="#DejaVuSans-32" x="63.623047"/>
       <use xlink:href="#DejaVuSans-30" x="127.246094"/>
      </g>
     </g>
    </g>
    <g id="text_15">
     <!-- Share value -->
     <g transform="translate(218.208352 204.201437) rotate(-90) scale(0.1 -0.1)">
      <defs>
       <path id="DejaVuSans-53" d="M 3425 4513 
L 3425 3897 
Q 3066 4069 2747 4153 
Q 2428 4238 2131 4238 
Q 1616 4238 1336 4038 
Q 1056 3838 1056 3469 
Q 1056 3159 1242 3001 
Q 1428 2844 1947 2747 
L 2328 2669 
Q 3034 2534 3370 2195 
Q 3706 1856 3706 1288 
Q 3706 609 3251 259 
Q 2797 -91 1919 -91 
Q 1588 -91 1214 -16 
Q 841 59 441 206 
L 441 856 
Q 825 641 1194 531 
Q 1563 422 1919 422 
Q 2459 422 2753 634 
Q 3047 847 3047 1241 
Q 3047 1584 2836 1778 
Q 2625 1972 2144 2069 
L 1759 2144 
Q 1053 2284 737 2584 
Q 422 2884 422 3419 
Q 422 4038 858 4394 
Q 1294 4750 2059 4750 
Q 2388 4750 2728 4690 
Q 3069 4631 3425 4513 
z
" transform="scale(0.015625)"/>
       <path id="DejaVuSans-68" d="M 3513 2113 
L 3513 0 
L 2938 0 
L 2938 2094 
Q 2938 2591 2744 2837 
Q 2550 3084 2163 3084 
Q 1697 3084 1428 2787 
Q 1159 2491 1159 1978 
L 1159 0 
L 581 0 
L 581 4863 
L 1159 4863 
L 1159 2956 
Q 1366 3272 1645 3428 
Q 1925 3584 2291 3584 
Q 2894 3584 3203 3211 
Q 3513 2838 3513 2113 
z
" transform="scale(0.015625)"/>
       <path id="DejaVuSans-6c" d="M 603 4863 
L 1178 4863 
L 1178 0 
L 603 0 
L 603 4863 
z
" transform="scale(0.015625)"/>
       <path id="DejaVuSans-75" d="M 544 1381 
L 544 3500 
L 1119 3500 
L 1119 1403 
Q 1119 906 1312 657 
Q 1506 409 1894 409 
Q 2359 409 2629 706 
Q 2900 1003 2900 1516 
L 2900 3500 
L 3475 3500 
L 3475 0 
L 2900 0 
L 2900 538 
Q 2691 219 2414 64 
Q 2138 -91 1772 -91 
Q 1169 -91 856 284 
Q 544 659 544 1381 
z
M 1991 3584 
L 1991 3584 
z
" transform="scale(0.015625)"/>
      </defs>
      <use xlink:href="#DejaVuSans-53"/>
      <use xlink:href="#DejaVuSans-68" x="63.476562"/>
      <use xlink:href="#DejaVuSans-61" x="126.855469"/>
      <use xlink:href="#DejaVuSans-72" x="188.134766"/>
      <use xlink:href="#DejaVuSans-65" x="226.998047"/>
      <use xlink:href="#DejaVuSans-20" x="288.521484"/>
      <use xlink:href="#DejaVuSans-76" x="320.308594"/>
      <use xlink:href="#DejaVuSans-61" x="379.488281"/>
      <use xlink:href="#DejaVuSans-6c" x="440.767578"/>
      <use xlink:href="#DejaVuSans-75" x="468.550781"/>
      <use xlink:href="#DejaVuSans-65" x="531.929688"/>
     </g>
    </g>
   </g>
   <g id="line2d_14">
    <path d="M 259.77124 262.539261 
L 259.905669 263.848283 
L 260.040099 263.514065 
L 260.107314 263.402658 
L 260.140921 263.514065 
L 260.275351 263.541916 
L 260.308959 263.625471 
L 260.342566 263.486213 
L 260.476996 263.06844 
L 260.409781 263.541916 
L 260.510603 263.291252 
L 260.544211 263.207698 
L 260.577818 263.319104 
L 260.645033 263.541916 
L 260.67864 263.319104 
L 260.745855 263.096291 
L 260.81307 263.124143 
L 260.846678 263.235549 
L 260.9475 262.539261 
L 260.981107 262.762073 
L 261.048322 263.06844 
L 261.115537 262.929182 
L 261.283574 260.840316 
L 261.350789 261.341644 
L 261.418004 262.260745 
L 261.451611 261.648011 
L 261.653256 261.731566 
L 261.754078 261.954378 
L 261.888508 261.035277 
L 261.922116 261.369496 
L 261.955723 260.784613 
L 261.98933 260.868168 
L 262.022938 261.641059 
L 262.056545 260.72891 
L 262.090153 261.118832 
L 262.493442 258.807153 
L 262.560657 258.974263 
L 262.695087 260.171879 
L 262.762301 259.726254 
L 262.795909 259.586997 
L 262.829516 259.6427 
L 262.963946 260.227582 
L 263.098376 259.698403 
L 263.165591 259.865512 
L 263.199198 259.559145 
L 263.266413 259.698403 
L 263.333628 259.781958 
L 263.367235 259.670551 
L 263.468058 258.194419 
L 263.56888 259.893364 
L 263.602487 259.809809 
L 263.837739 261.09098 
L 263.938562 261.035277 
L 264.140206 260.171879 
L 264.241029 261.007426 
L 264.274636 260.72891 
L 264.308243 260.478246 
L 264.375458 260.701059 
L 264.442673 260.506098 
L 264.61071 259.447739 
L 264.644318 259.531294 
L 264.677925 259.336333 
L 264.711533 259.11352 
L 264.74514 259.252778 
L 264.845962 259.670551 
L 264.913177 264.098947 
L 264.980392 263.124143 
L 265.014 263.207698 
L 265.047607 263.096291 
L 265.081214 263.012737 
L 265.114822 263.124143 
L 265.215644 263.681174 
L 265.282859 263.541916 
L 265.316466 263.569768 
L 265.350074 263.764729 
L 265.518111 262.734221 
L 265.618933 262.567112 
L 265.719756 262.817776 
L 265.753363 262.734221 
L 265.786971 262.372151 
L 265.854185 262.762073 
L 265.9214 263.179846 
L 265.988615 262.873479 
L 266.022223 262.400003 
L 266.123045 262.427854 
L 266.156652 262.483557 
L 266.19026 262.400003 
L 266.32469 261.731566 
L 266.358297 261.759417 
L 266.391904 262.372151 
L 266.459119 262.121487 
L 266.593549 261.870823 
L 266.627156 261.898675 
L 266.660764 261.759417 
L 266.694371 262.065784 
L 266.727979 261.926527 
L 266.795194 261.870823 
L 266.862408 262.149339 
L 266.996838 261.670292 
L 267.030446 261.648011 
L 267.097661 262.196129 
L 267.131268 261.648011 
L 267.198483 261.224668 
L 267.23209 260.311137 
L 267.332913 260.533949 
L 267.36652 260.69883 
L 267.433735 260.623074 
L 267.50095 260.712199 
L 267.568165 260.199731 
L 267.769809 261.380636 
L 267.937846 261.041961 
L 268.173098 261.959948 
L 268.206706 261.915386 
L 268.341136 261.157824 
L 268.374743 261.242493 
L 268.408351 261.692574 
L 268.475565 261.380636 
L 268.509173 261.202386 
L 268.576388 261.367268 
L 268.609995 261.688117 
L 268.67721 261.581167 
L 268.845247 260.979574 
L 268.878855 261.001855 
L 268.946069 261.139999 
L 269.046892 259.910075 
L 269.080499 260.043762 
L 269.114107 260.003656 
L 269.147714 259.620419 
L 269.214929 259.736281 
L 269.315751 259.954637 
L 269.450181 259.197075 
L 269.483788 259.277288 
L 269.517396 259.197075 
L 269.685433 259.918987 
L 269.71904 260.088325 
L 269.920685 258.675694 
L 270.055115 259.027738 
L 270.12233 259.25055 
L 270.189545 259.1436 
L 270.391189 258.53755 
L 270.424797 258.528638 
L 270.458404 258.145401 
L 270.559226 258.243438 
L 270.592834 258.53755 
L 270.626441 258.114207 
L 270.760871 257.512614 
L 270.962516 259.624875 
L 271.096945 258.75145 
L 271.130553 258.818294 
L 271.16416 258.849488 
L 271.197768 258.796013 
L 271.264983 259.219356 
L 271.29859 259.0723 
L 271.365805 259.041106 
L 271.43302 259.263919 
L 271.466627 259.130231 
L 271.634664 258.296913 
L 271.668272 258.626675 
L 271.735487 258.310282 
L 271.836309 258.689063 
L 271.937131 258.176594 
L 271.970739 258.305826 
L 272.071561 258.279088 
L 272.205991 259.526837 
L 272.306813 260.533949 
L 272.34042 260.480474 
L 272.508458 259.259463 
L 272.542065 259.531294 
L 272.575672 259.139144 
L 272.74371 258.885138 
L 272.777317 258.978719 
L 272.810925 259.156969 
L 272.844532 258.885138 
L 272.878139 258.907419 
L 273.079784 257.904763 
L 273.146999 258.907419 
L 273.214214 258.5732 
L 273.281429 258.207788 
L 273.315036 258.359301 
L 273.550288 259.0723 
L 273.65111 259.486731 
L 273.78554 258.439513 
L 273.819148 258.796013 
L 273.886362 258.426144 
L 273.953577 258.987631 
L 273.987185 258.506357 
L 274.020792 258.564288 
L 274.0544 258.475163 
L 274.088007 258.381582 
L 274.121614 258.89405 
L 274.155222 258.283544 
L 274.323259 257.209589 
L 274.356867 257.557176 
L 274.424081 257.664126 
L 274.558511 257.075901 
L 274.659333 257.83792 
L 274.692941 257.704232 
L 274.793763 257.860201 
L 274.827371 257.949326 
L 274.860978 258.377126 
L 274.9618 258.292457 
L 275.062623 258.230069 
L 275.197052 257.69532 
L 275.297875 257.891395 
L 275.331482 257.619564 
L 275.398697 258.546463 
L 275.432304 257.414576 
L 275.533127 256.73277 
L 275.667557 257.570545 
L 275.701164 257.860201 
L 275.801986 256.977864 
L 275.835594 257.615107 
L 275.902809 257.387839 
L 275.936416 257.178395 
L 275.970023 257.525982 
L 276.003631 257.668582 
L 276.037238 257.543807 
L 276.070846 257.356645 
L 276.138061 257.494789 
L 276.171668 257.829007 
L 276.205275 257.370014 
L 276.238883 257.548264 
L 276.373313 257.414576 
L 276.507742 257.771076 
L 276.54135 257.361101 
L 276.608565 257.436857 
L 276.810209 258.029538 
L 276.944639 257.472507 
L 277.011854 257.419032 
L 277.045461 257.904763 
L 277.079069 257.704232 
L 277.112676 257.949326 
L 277.146284 257.83792 
L 277.179891 257.94487 
L 277.213499 259.018825 
L 277.314321 258.840575 
L 277.448751 258.167682 
L 277.515965 258.301369 
L 277.684003 259.014369 
L 277.71761 258.53755 
L 277.751217 259.050019 
L 277.784825 258.75145 
L 277.885647 259.308481 
L 277.98647 259.081213 
L 278.053684 258.96535 
L 278.120899 259.566944 
L 278.188114 259.473362 
L 278.255329 259.865512 
L 278.288936 259.2862 
L 278.389759 259.433256 
L 278.490581 258.818294 
L 278.524189 259.219356 
L 278.591403 259.197075 
L 278.692226 259.745194 
L 278.725833 259.700631 
L 278.759441 259.553575 
L 278.826655 260.600793 
L 278.89387 260.177449 
L 278.961085 260.377981 
L 279.0283 261.139999 
L 279.095515 260.91273 
L 279.16273 260.222012 
L 279.196337 260.533949 
L 279.29716 261.616817 
L 279.431589 259.241638 
L 279.532412 258.974263 
L 279.566019 259.210444 
L 279.599626 259.6427 
L 279.633234 259.188163 
L 279.734056 258.604394 
L 279.767664 258.840575 
L 279.801271 258.974263 
L 279.834878 258.617763 
L 279.935701 258.640044 
L 280.002916 258.546463 
L 280.036523 258.626675 
L 280.271775 259.228269 
L 280.33899 259.152513 
L 280.47342 258.796013 
L 280.507027 258.8584 
L 280.574242 258.876225 
L 280.607849 259.032194 
L 280.675064 258.9297 
L 280.843102 258.666782 
L 280.876709 258.657869 
L 281.044746 258.372669 
L 281.111961 258.439513 
L 281.179176 258.862857 
L 281.246391 258.773732 
L 281.448035 259.246094 
L 281.582465 258.261263 
L 281.64968 258.528638 
L 281.716895 258.461794 
L 281.750502 258.301369 
L 281.817717 258.328107 
L 281.884932 258.626675 
L 281.952147 258.466251 
L 282.052969 257.722057 
L 282.120184 257.83792 
L 282.187399 257.681951 
L 282.221006 257.722057 
L 282.422651 258.528638 
L 282.456258 258.417232 
L 282.624296 258.207788 
L 282.69151 258.461794 
L 282.792333 258.337019 
L 282.926763 258.194419 
L 283.195622 258.666782 
L 283.330052 258.506357 
L 283.363659 258.501901 
L 283.430874 258.301369 
L 283.464481 258.439513 
L 283.498089 258.501901 
L 283.565304 258.185507 
L 283.598911 258.452882 
L 283.733341 259.001 
L 283.834163 258.337019 
L 283.867771 258.506357 
L 283.968593 258.550919 
L 284.0022 258.435057 
L 284.035808 258.591025 
L 284.069415 258.853944 
L 284.103023 258.671238 
L 284.237452 258.283544 
L 284.27106 258.510813 
L 284.338275 258.261263 
L 284.40549 258.033995 
L 284.472705 258.074101 
L 284.506312 258.05182 
L 284.674349 258.533094 
L 284.775171 257.993888 
L 284.808779 258.221157 
L 284.909601 257.641845 
L 284.976816 257.677495 
L 285.044031 257.882482 
L 285.077638 257.815638 
L 285.178461 257.468051 
L 285.212068 257.583914 
L 285.346498 257.824551 
L 285.480928 257.503701 
L 285.615357 257.864657 
L 285.682572 257.035795 
L 285.749787 257.044708 
L 285.850609 257.169483 
L 285.884217 257.08927 
L 285.917824 257.071445 
L 286.085861 256.264864 
L 286.153076 256.345077 
L 286.220291 256.206933 
L 286.253899 256.331708 
L 286.287506 256.443114 
L 286.321113 256.278233 
L 286.354721 256.202477 
L 286.388328 256.353989 
L 286.421936 256.411921 
L 286.455543 256.862002 
L 286.522758 256.380727 
L 286.589973 256.51887 
L 286.62358 256.434202 
L 286.657188 256.247039 
L 286.690795 256.349533 
L 286.724403 256.558977 
L 286.75801 256.353989 
L 286.959655 255.431546 
L 286.993262 255.422634 
L 287.060477 256.162371 
L 287.127692 256.028683 
L 287.295729 255.400352 
L 287.362944 255.574146 
L 287.396551 255.681096 
L 287.430159 255.471652 
L 287.463766 255.60534 
L 287.497374 255.431546 
L 287.564589 255.471652 
L 287.699018 255.908365 
L 287.732626 255.636534 
L 287.867055 257.900307 
L 287.967878 257.307626 
L 288.001485 257.699776 
L 288.102308 258.234526 
L 288.135915 258.078557 
L 288.404774 256.91102 
L 288.438382 257.013514 
L 288.471989 257.026883 
L 288.606419 257.490332 
L 288.774456 257.107095 
L 288.808064 257.19622 
L 289.009708 257.62402 
L 289.043316 257.726513 
L 289.144138 257.681951 
L 289.211353 257.601739 
L 289.312175 257.87357 
L 289.547427 257.401207 
L 289.614642 256.755052 
L 289.681857 256.928845 
L 289.715464 256.968951 
L 289.782679 256.634733 
L 289.816287 256.76842 
L 289.849894 256.870914 
L 289.883502 257.637389 
L 289.950716 257.530439 
L 290.085146 256.812983 
L 290.219576 257.133833 
L 290.253183 257.084814 
L 290.286791 256.951126 
L 290.320398 257.129376 
L 290.354006 257.258608 
L 290.421221 257.107095 
L 290.454828 256.87537 
L 290.488435 257.205133 
L 290.522043 257.169483 
L 290.69008 256.487677 
L 290.723687 256.576802 
L 290.790902 256.469852 
L 290.82451 256.046508 
L 290.891725 256.251496 
L 291.026154 256.80407 
L 291.093369 256.501046 
L 291.160584 256.55452 
L 291.194192 256.857545 
L 291.261406 256.603539 
L 291.328621 256.781789 
L 291.395836 256.665927 
L 291.496658 256.367358 
L 291.530266 256.487677 
L 291.631088 256.69712 
L 291.967163 254.754197 
L 292.034377 254.941359 
L 292.067985 254.887884 
L 292.101592 255.066134 
L 292.168807 254.852234 
L 292.236022 254.063478 
L 292.26963 254.798759 
L 292.336844 255.186453 
L 292.370452 255.061678 
L 292.437667 254.673984 
L 292.471274 255.208734 
L 292.572096 255.092871 
L 292.740134 255.734571 
L 292.840956 255.542952 
L 292.941778 255.275578 
L 292.975386 255.315684 
L 293.143423 256.345077 
L 293.210638 256.211389 
L 293.277853 255.841521 
L 293.345067 256.184652 
L 293.44589 256.492133 
L 293.479497 256.416377 
L 293.748357 255.146346 
L 293.781964 255.186453 
L 293.815572 255.453827 
L 293.849179 255.088415 
L 293.882786 255.324596 
L 293.983609 254.905709 
L 294.017216 254.990378 
L 294.050824 255.186453 
L 294.118038 255.048309 
L 294.151646 254.210534 
L 294.218861 254.451172 
L 294.252468 254.71409 
L 294.286076 254.250641 
L 294.319683 254.53584 
L 294.454113 254.188253 
L 294.48772 254.384328 
L 294.521328 254.825497 
L 294.588543 254.589315 
L 294.75658 254.152603 
L 294.924617 253.969897 
L 295.059047 253.591116 
L 295.126261 253.854035 
L 295.159869 253.796103 
L 295.193476 253.689153 
L 295.227084 253.880772 
L 295.327906 253.862947 
L 295.462336 254.054566 
L 295.529551 253.827297 
L 295.630373 254.50019 
L 295.66398 254.241728 
L 295.966447 255.181996 
L 296.100877 254.89234 
L 296.134485 254.910165 
L 296.235307 254.994834 
L 296.268914 255.288946 
L 296.302522 255.150803 
L 296.436951 254.059022 
L 296.604989 255.132978 
L 296.672204 254.656159 
L 296.739418 254.905709 
L 297.008278 254.353134 
L 297.041885 254.366503 
L 297.277137 253.617854 
L 297.344352 254.143691 
L 297.445175 253.969897 
L 297.478782 254.041197 
L 297.512389 253.974353 
L 297.545997 253.738172 
L 297.613212 253.809472 
L 297.848464 254.96364 
L 297.915679 254.82104 
L 297.982893 254.700722 
L 298.150931 255.364702 
L 298.184538 255.28449 
L 298.218146 255.271121 
L 298.251753 254.968096 
L 298.352575 255.026028 
L 298.520612 254.415522 
L 298.621435 254.669528 
L 298.823079 253.952072 
L 298.890294 253.854035 
L 298.957509 253.894141 
L 298.991117 253.83621 
L 299.024724 253.858491 
L 299.058331 254.063478 
L 299.091939 253.840666 
L 299.259976 253.132123 
L 299.293583 253.100929 
L 299.327191 253.381672 
L 299.495228 251.300605 
L 299.528836 251.287236 
L 299.59605 251.207024 
L 299.663265 251.630367 
L 299.696873 251.367449 
L 299.73048 251.572436 
L 299.764088 251.848723 
L 299.797695 251.67493 
L 299.898517 251.059968 
L 299.932125 251.242674 
L 299.965732 251.260499 
L 300.100162 252.303261 
L 300.167377 252.044798 
L 300.200984 251.487767 
L 300.268199 252.022517 
L 300.335414 251.541242 
L 300.369021 251.224849 
L 300.402629 251.483311 
L 300.537059 251.670473 
L 300.604273 251.563524 
L 300.738703 251.955673 
L 300.940348 251.443205 
L 300.973955 250.921824 
L 301.074778 251.073336 
L 301.1756 251.510049 
L 301.209207 251.189199 
L 301.377244 250.248931 
L 301.444459 250.315774 
L 301.511674 250.699012 
L 301.578889 250.538587 
L 301.612496 250.543043 
L 301.646104 250.159806 
L 301.679711 250.42718 
L 301.713319 250.752487 
L 301.780534 250.560868 
L 301.814141 250.507393 
L 301.847749 250.600974 
L 301.948571 250.78368 
L 301.982178 250.725749 
L 302.015786 250.547499 
L 302.083001 250.627712 
L 302.21743 250.872805 
L 302.419075 251.242674 
L 302.923186 249.51365 
L 302.956794 249.304206 
L 302.990401 249.611687 
L 303.024009 249.437894 
L 303.091224 249.812218 
L 303.158439 249.705268 
L 303.292868 249.277469 
L 303.360083 249.58495 
L 303.393691 249.491369 
L 303.460905 249.522562 
L 303.561728 249.054656 
L 303.830587 250.658905 
L 303.864195 250.614343 
L 303.897802 250.60543 
L 304.065839 251.037686 
L 304.166662 250.81933 
L 304.267484 250.730205 
L 304.334699 251.162461 
L 304.401914 251.046599 
L 304.435521 251.037686 
L 304.603558 251.777423 
L 304.670773 251.572436 
L 304.805203 249.437894 
L 304.83881 249.281925 
L 304.906025 249.460175 
L 305.141277 250.418268 
L 305.208492 250.275668 
L 305.242099 250.222193 
L 305.376529 250.725749 
L 305.410137 250.67673 
L 305.510959 250.886174 
L 305.678996 250.248931 
L 305.712604 250.373706 
L 305.746211 249.923625 
L 305.813426 250.324687 
L 305.947856 250.333599 
L 305.981463 250.418268 
L 306.01507 250.293493 
L 306.048678 250.226649 
L 306.115893 250.645537 
L 306.183108 250.587605 
L 306.351145 250.101874 
L 306.552789 250.912911 
L 306.620004 251.291692 
L 306.687219 251.21148 
L 306.720827 251.220393 
L 306.788042 250.730205 
L 306.821649 250.779224 
L 306.989686 251.599174 
L 307.056901 251.452117 
L 307.124116 251.166918 
L 307.191331 251.220393 
L 307.224938 251.220393 
L 307.292153 250.99758 
L 307.359368 251.117899 
L 307.628227 251.625911 
L 307.661835 251.487767 
L 307.72905 252.133923 
L 307.796265 251.799705 
L 307.897087 251.220393 
L 307.964302 251.492224 
L 307.997909 251.398642 
L 308.165946 251.162461 
L 308.199554 251.398642 
L 308.266769 251.264955 
L 308.333984 251.162461 
L 308.367591 251.28278 
L 308.434806 251.215936 
L 308.502021 251.443205 
L 308.602843 250.970843 
L 308.63645 251.202568 
L 308.670058 250.953018 
L 308.703665 251.064424 
L 308.77088 250.739118 
L 308.838095 250.872805 
L 309.006132 251.291692 
L 309.174169 250.583149 
L 309.207777 250.814874 
L 309.241384 249.304206 
L 309.308599 250.280124 
L 309.342207 250.266756 
L 309.375814 250.057312 
L 309.409421 250.453918 
L 309.678281 251.144636 
L 309.745496 251.17583 
L 309.779103 251.465486 
L 309.812711 251.220393 
L 309.879926 250.953018 
L 309.913533 251.082249 
L 309.980748 251.42538 
L 310.08157 251.371905 
L 310.35043 249.901343 
L 310.451252 250.159806 
L 310.518467 250.583149 
L 310.619289 250.551955 
L 310.720111 250.614343 
L 310.888149 250.832699 
L 311.022578 249.616143 
L 311.056186 249.879062 
L 311.291438 250.436093 
L 311.358653 250.141981 
L 311.39226 250.240018 
L 311.425868 250.507393 
L 311.493082 250.195456 
L 311.52669 250.293493 
L 311.560297 250.061768 
L 311.593905 250.101874 
L 311.66112 250.387074 
L 311.694727 250.177631 
L 311.761942 250.49848 
L 311.829157 250.306862 
L 311.929979 250.133068 
L 311.997194 249.807762 
L 312.030801 250.048399 
L 312.064409 250.106331 
L 312.131624 249.6919 
L 312.165231 249.803306 
L 312.266053 249.999381 
L 312.333268 249.65625 
L 312.366876 249.8345 
L 312.400483 249.843412 
L 312.434091 249.705268 
L 312.56852 250.213281 
L 312.602128 250.302406 
L 312.70295 249.607231 
L 312.736558 249.928081 
L 312.770165 249.861237 
L 312.83738 249.919168 
L 312.938202 249.990468 
L 312.97181 250.190999 
L 313.039024 250.017206 
L 313.072632 249.518106 
L 313.139847 249.772112 
L 313.173454 249.874606 
L 313.207062 250.614343 
L 313.274276 250.511849 
L 313.408706 250.128612 
L 313.442314 250.146437 
L 313.509529 250.164262 
L 313.610351 249.647337 
L 313.677566 249.772112 
L 313.711173 249.629512 
L 313.778388 249.232906 
L 313.845603 249.4067 
L 313.87921 249.629512 
L 313.912818 249.232906 
L 313.946425 249.397787 
L 314.080855 249.139325 
L 314.14807 249.090306 
L 314.181677 249.148238 
L 314.215285 249.402244 
L 314.2825 249.08585 
L 314.349714 248.742719 
L 314.416929 248.916513 
L 314.618574 249.277469 
L 314.652181 249.174975 
L 314.753004 249.054656 
L 314.786611 249.130413 
L 314.853826 249.041288 
L 314.988256 248.506538 
L 315.055471 248.533275 
L 315.223508 249.281925 
L 315.257115 249.29975 
L 315.32433 250.284581 
L 315.391545 250.124156 
L 315.425152 250.021662 
L 315.45876 250.266756 
L 315.559582 250.85498 
L 315.59319 250.837155 
L 315.727619 250.369249 
L 315.828442 250.801505 
L 315.862049 250.636624 
L 316.063694 249.861237 
L 316.097301 249.87015 
L 316.130908 249.874606 
L 316.298946 249.068025 
L 316.366161 249.1215 
L 316.399768 249.210625 
L 316.433375 249.125956 
L 316.63502 248.363938 
L 316.76945 248.822931 
L 316.803057 248.635769 
L 316.870272 248.555557 
L 316.903879 248.929881 
L 316.971094 248.493169 
L 317.038309 248.675875 
L 317.071917 248.484257 
L 317.105524 248.484257 
L 317.273561 247.860382 
L 317.307169 247.940595 
L 317.508813 247.049345 
L 317.542421 247.080539 
L 317.609636 247.049345 
L 317.676851 246.608177 
L 317.710458 247.624201 
L 317.81128 247.347914 
L 317.979317 246.536877 
L 318.012925 247.17412 
L 318.08014 247.000326 
L 318.113747 246.85327 
L 318.147355 247.071626 
L 318.248177 247.686588 
L 318.281784 247.472689 
L 318.315392 247.557357 
L 318.382607 247.022608 
L 318.517036 248.203513 
L 318.550644 248.225794 
L 318.752288 247.695501 
L 318.819503 247.784626 
L 318.853111 247.633113 
L 319.054755 246.942395 
L 319.088363 246.969133 
L 319.189185 247.013695 
L 319.323615 246.385364 
L 319.357222 246.527964 
L 319.424437 246.741864 
L 319.458045 246.652739 
L 319.525259 248.185688 
L 319.592474 248.118844 
L 319.693297 247.936138 
L 319.659689 248.207969 
L 319.726904 248.011894 
L 319.794119 247.953963 
L 319.861334 248.127757 
L 319.894941 248.127757 
L 320.029371 247.92277 
L 320.062978 247.971788 
L 320.197408 247.116189 
L 320.231016 247.223139 
L 320.331838 247.535076 
L 320.365445 247.521707 
L 320.43266 247.236507 
L 320.466268 247.374651 
L 320.634305 248.029719 
L 320.667912 247.860382 
L 320.768735 247.891576 
L 320.802342 247.762345 
L 320.869557 247.891576 
L 320.936772 248.176776 
L 321.003987 247.472689 
L 321.037594 247.588551 
L 321.071201 247.904945 
L 321.138416 247.615288 
L 321.172024 247.624201 
L 321.205631 247.499426 
L 321.239239 247.570726 
L 321.272846 247.896032 
L 321.340061 247.543989 
L 321.373668 247.655395 
L 321.440883 247.619745 
L 321.474491 247.593007 
L 321.508098 247.365739 
L 321.575313 247.664307 
L 321.709743 249.197256 
L 321.776958 249.411156 
L 321.810565 249.174975 
L 321.944995 249.210625 
L 321.978602 248.809563 
L 322.045817 249.277469 
L 322.180247 248.903144 
L 322.213854 248.947706 
L 322.247462 249.027919 
L 322.314677 248.983356 
L 322.415499 248.470888 
L 322.482714 248.506538 
L 322.549929 248.368394 
L 322.583536 248.644682 
L 322.650751 248.270357 
L 322.684358 248.368394 
L 322.785181 248.341657 
L 322.818788 248.604575 
L 322.852396 248.560013 
L 322.886003 248.742719 
L 322.91961 248.426325 
L 322.986825 248.118844 
L 323.020433 248.167863 
L 323.087648 248.323832 
L 323.121255 248.158951 
L 323.356507 246.933483 
L 323.390114 246.946851 
L 323.591759 247.900488 
L 323.726189 247.70887 
L 323.759796 248.4798 
L 323.827011 247.998526 
L 324.028656 247.526164 
L 324.095871 247.659851 
L 324.129478 247.552901 
L 324.163085 247.45932 
L 324.196693 247.655395 
L 324.2303 247.753432 
L 324.263908 247.606376 
L 324.36473 247.414757 
L 324.398338 247.508339 
L 324.431945 247.486057 
L 324.532767 248.087651 
L 324.566375 247.953963 
L 324.599982 247.307807 
L 324.667197 247.855926 
L 324.768019 248.791738 
L 324.835234 248.283726 
L 324.868842 247.962876 
L 324.902449 248.306007 
L 324.969664 248.011894 
L 325.003271 248.065369 
L 325.070486 248.961075 
L 325.137701 248.805106 
L 325.204916 248.640225 
L 325.372953 249.749831 
L 325.440168 249.700812 
L 325.507383 249.794393 
L 325.709028 248.889775 
L 325.742635 248.916513 
L 325.910672 249.531475 
L 325.977887 248.956619 
L 326.045102 249.273012 
L 326.145924 248.903144 
L 326.246746 250.177631 
L 326.280354 249.972643 
L 326.313961 249.772112 
L 326.381176 250.912911 
L 326.448391 250.895086 
L 326.582821 250.057312 
L 326.616428 250.079593 
L 326.818073 250.743574 
L 326.885288 250.529674 
L 326.98611 250.195456 
L 327.019717 250.231106 
L 327.053325 250.280124 
L 327.086932 250.208824 
L 327.221362 249.201712 
L 327.389399 250.039487 
L 327.423007 249.428981 
L 327.523829 249.486912 
L 327.624651 249.08585 
L 327.658259 249.108131 
L 327.725474 249.219537 
L 327.927118 248.265901 
L 328.061548 244.821221 
L 328.128763 245.195546 
L 328.195978 245.137615 
L 328.330407 244.945996 
L 328.397622 244.896978 
L 328.43123 245.044034 
L 328.532052 244.660797 
L 328.56566 244.683078 
L 328.599267 244.660797 
L 328.700089 245.110878 
L 328.868126 244.139416 
L 328.901734 244.179522 
L 328.968949 243.083285 
L 329.036164 243.288272 
L 329.069771 243.653685 
L 329.136986 243.239254 
L 329.305023 242.263336 
L 329.338631 242.976335 
L 329.405845 242.414848 
L 329.439453 241.857817 
L 329.506668 242.147473 
L 329.641097 242.63766 
L 329.674705 242.584185 
L 329.943564 240.449643 
L 329.977172 240.40508 
L 330.212424 242.624292 
L 330.380461 241.505773 
L 330.414068 241.585986 
L 330.447676 244.117134 
L 330.548498 243.604666 
L 330.582106 243.70716 
L 330.615713 243.569016 
L 330.64932 243.667053 
L 330.682928 243.132304 
L 330.750143 243.640316 
L 330.817358 242.905035 
L 330.850965 243.689335 
L 330.884573 243.840847 
L 330.91818 243.551191 
L 330.951787 243.301641 
L 330.985395 243.506629 
L 331.119825 244.76329 
L 331.153432 244.344403 
L 331.187039 244.40679 
L 331.220647 244.353315 
L 331.254254 244.170609 
L 331.287862 244.491459 
L 331.355077 244.437984 
L 331.388684 244.696447 
L 331.455899 243.061004 
L 331.523114 243.332835 
L 331.657544 244.44244 
L 331.691151 244.152784 
L 331.724758 243.978991 
L 331.758366 244.224084 
L 331.825581 245.329234 
L 331.96001 247.833645 
L 331.993618 245.070771 
L 332.060833 248.203513 
L 332.195263 245.814965 
L 332.329692 248.096563 
L 332.497729 245.930827 
L 332.531337 245.788227 
L 332.564944 245.917458 
L 332.598552 246.394277 
L 332.665767 246.100164 
L 332.766589 245.462921 
L 332.934626 249.838956 
L 332.968234 248.239163 
L 333.069056 247.477145 
L 333.102663 247.713326 
L 333.237093 249.081394 
L 333.304308 248.074282 
L 333.337915 248.854125 
L 333.371523 249.197256 
L 333.40513 249.103675 
L 333.640382 245.850615 
L 333.67399 245.663452 
L 333.741205 245.823877 
L 333.774812 246.158096 
L 333.808419 245.480746 
L 333.842027 245.40499 
L 333.875634 244.94154 
L 333.942849 245.480746 
L 334.043671 245.088596 
L 334.077279 245.431727 
L 334.144494 245.146527 
L 334.211709 244.348859 
L 334.245316 245.257934 
L 334.278923 244.527109 
L 334.312531 244.602865 
L 334.346138 244.553847 
L 334.413353 244.059203 
L 334.514176 244.273103 
L 334.547783 244.348859 
L 334.58139 244.313209 
L 334.71582 242.35246 
L 334.749428 242.664398 
L 334.783035 242.401479 
L 334.85025 241.848905 
L 334.883857 242.383654 
L 334.98468 242.664398 
L 335.152717 245.110878 
L 335.219932 246.220483 
L 335.287147 246.095708 
L 335.556006 242.419304 
L 335.589613 242.35246 
L 335.656828 242.762435 
L 335.690436 242.307898 
L 335.724043 242.615379 
L 335.757651 242.477235 
L 335.791258 241.782061 
L 335.858473 242.682223 
L 336.060118 244.170609 
L 336.127332 243.702703 
L 336.16094 243.377397 
L 336.228155 243.765091 
L 336.29537 243.270447 
L 336.328977 243.582385 
L 336.429799 244.669709 
L 336.497014 244.148328 
L 336.530622 241.095797 
L 336.631444 241.323067 
L 336.933911 242.071717 
L 337.034733 241.372086 
L 337.068341 241.978136 
L 337.101948 242.102911 
L 337.135555 241.880098 
L 337.3372 240.280307 
L 337.370808 240.28476 
L 337.47163 241.857817 
L 337.505237 241.193836 
L 337.538845 241.385455 
L 337.60606 240.418449 
L 337.639667 241.331982 
L 337.673274 241.331982 
L 337.774097 239.874787 
L 337.807704 240.636805 
L 337.841312 240.868532 
L 337.874919 240.409535 
L 338.009349 239.576218 
L 338.143779 240.801686 
L 338.177386 240.440732 
L 338.210993 240.748211 
L 338.278208 240.422907 
L 338.345423 240.093141 
L 338.446245 239.540568 
L 338.51346 240.748211 
L 338.547068 240.400624 
L 338.580675 239.923806 
L 338.64789 240.529855 
L 338.681498 240.048581 
L 338.849535 241.456755 
L 338.883142 241.621636 
L 338.91675 241.443386 
L 338.983964 240.788319 
L 339.051179 241.077972 
L 339.152002 241.86673 
L 339.219216 241.514686 
L 339.252824 241.349803 
L 339.286431 241.536967 
L 339.320039 241.514686 
L 339.488076 242.405935 
L 339.756935 240.026301 
L 339.790543 240.587785 
L 339.82415 239.82131 
L 339.857758 239.870329 
L 339.891365 239.919348 
L 340.160225 238.738442 
L 340.22744 239.411337 
L 340.294654 239.135052 
L 340.328262 239.121679 
L 340.395477 238.083377 
L 340.429084 238.725073 
L 340.496299 238.876588 
L 340.597121 237.75807 
L 340.664336 238.208151 
L 340.765158 235.850796 
L 340.798766 235.957746 
L 340.933196 235.209096 
L 340.966803 235.31159 
L 341.168448 233.907872 
L 341.202055 234.023736 
L 341.302877 233.711795 
L 341.336485 233.439964 
L 341.370092 233.738536 
L 341.4037 233.68506 
L 341.437307 233.680602 
L 341.504522 233.007712 
L 341.571737 233.226066 
L 341.605344 233.226066 
L 341.706167 232.75816 
L 341.806989 232.869566 
L 341.907811 231.559431 
L 341.941419 231.653013 
L 342.008634 232.062986 
L 342.042241 231.884736 
L 342.210278 230.77513 
L 342.277493 230.88208 
L 342.311101 231.189561 
L 342.344708 230.913274 
L 342.747997 227.972151 
L 342.781605 229.375868 
L 342.882427 229.09067 
L 342.949642 229.955179 
L 342.983249 229.683348 
L 343.016857 228.4356 
L 343.084072 229.937354 
L 343.117679 229.910618 
L 343.218501 231.653013 
L 343.252109 231.412373 
L 343.453753 229.175336 
L 343.520968 229.33576 
L 343.588183 228.97035 
L 343.75622 226.697664 
L 343.789828 226.764508 
L 343.823435 226.956126 
L 343.857043 226.586258 
L 343.89065 226.572889 
L 344.125902 224.768107 
L 344.159509 225.080048 
L 344.260332 226.127264 
L 344.293939 225.552408 
L 344.361154 225.828697 
L 344.562799 223.538186 
L 344.596406 224.24227 
L 344.630014 223.310916 
L 344.663621 223.400041 
L 344.697228 222.932137 
L 344.730836 223.391128 
L 344.831658 225.195907 
L 344.798051 223.257441 
L 344.93248 224.36259 
L 345.100518 222.73606 
L 345.234947 226.457027 
L 345.268555 224.924076 
L 345.302162 225.423177 
L 345.33577 224.67007 
L 345.369377 224.473996 
L 345.537414 227.040793 
L 345.705451 223.613941 
L 345.739059 224.857236 
L 345.772666 223.466885 
L 345.839881 221.942848 
L 345.873489 223.137122 
L 345.907096 224.046199 
L 345.974311 223.065822 
L 346.142348 220.766401 
L 346.24317 220.837699 
L 346.276778 221.042684 
L 346.310385 223.413408 
L 346.3776 222.370648 
L 346.579245 219.447351 
L 346.612852 220.659447 
L 346.680067 219.857324 
L 346.747282 220.285124 
L 346.814497 220.017749 
L 346.948927 222.16566 
L 347.083356 217.548988 
L 347.150571 218.850212 
L 347.217786 218.538277 
L 347.251393 218.680875 
L 347.318608 218.547188 
L 347.385823 217.887665 
L 347.419431 218.172865 
L 347.55386 218.876948 
L 347.721898 217.967877 
L 347.789112 219.179973 
L 347.82272 218.66305 
L 348.024364 215.552588 
L 348.057972 215.570414 
L 348.226009 219.09085 
L 348.259617 218.511536 
L 348.293224 217.923311 
L 348.360439 221.345709 
L 348.528476 209.180154 
L 348.562083 209.322756 
L 348.595691 209.340579 
L 348.696513 210.615066 
L 348.830943 209.269284 
L 348.898158 210.347694 
L 348.965373 209.991193 
L 348.99898 209.750552 
L 349.032588 210.222921 
L 349.066195 211.586531 
L 349.13341 211.069605 
L 349.167017 210.855707 
L 349.26784 212.994704 
L 349.301447 212.914491 
L 349.335054 212.932316 
L 349.570307 210.65963 
L 349.637521 211.363719 
L 349.738344 212.549082 
L 349.704736 211.212208 
L 349.771951 211.934118 
L 349.872773 210.231828 
L 349.906381 211.559796 
L 349.973596 211.123078 
L 350.30967 206.354895 
L 350.477707 194.358678 
L 350.511315 194.777567 
L 350.679352 197.825638 
L 350.712959 196.934388 
L 350.780174 197.843466 
L 350.914604 199.652701 
L 351.015426 198.609934 
L 350.981819 199.795297 
L 351.049034 199.135775 
L 351.183463 195.205361 
L 351.217071 195.463825 
L 351.250678 196.19465 
L 351.317893 195.490561 
L 351.385108 194.207167 
L 351.418715 195.757939 
L 351.653967 191.417551 
L 351.687575 191.462117 
L 351.788397 190.642169 
L 351.822005 190.891717 
L 351.855612 191.239304 
L 351.88922 190.437178 
L 351.922827 190.125243 
L 352.023649 194.510188 
L 352.090864 194.100215 
L 352.124472 194.162601 
L 352.191686 188.904229 
L 352.258901 189.831129 
L 352.326116 188.467519 
L 352.460546 193.039625 
L 352.494153 193.012889 
L 352.561368 193.057453 
L 352.594976 191.782967 
L 352.662191 194.002176 
L 352.695798 193.779364 
L 352.729405 191.016492 
L 352.830228 191.533419 
L 352.998265 196.577887 
L 353.099087 195.606429 
L 353.132695 195.686637 
L 353.166302 194.61714 
L 353.233517 195.071681 
L 353.267124 197.166115 
L 353.334339 194.706265 
L 353.435162 195.62425 
L 353.771236 190.891717 
L 353.804843 191.479938 
L 353.838451 190.365876 
L 353.872058 191.239304 
L 354.006488 189.831129 
L 354.10731 191.542326 
L 354.140918 191.346256 
L 354.174525 191.765138 
L 354.208133 191.390815 
L 354.24174 190.811501 
L 354.275347 191.818618 
L 354.443385 193.298089 
L 354.476992 192.834641 
L 354.544207 195.401438 
L 354.611422 195.134066 
L 354.645029 195.713373 
L 354.678637 195.0182 
L 354.712244 195.098416 
L 354.981104 192.192941 
L 355.115533 188.70816 
L 355.182748 189.563757 
L 355.317178 190.624341 
L 355.249963 189.358768 
L 355.350785 189.955903 
L 355.384393 189.991553 
L 355.854897 212.914491 
L 355.922112 213.894864 
L 356.022934 208.092835 
L 356.123756 210.000109 
L 356.157364 209.52774 
L 356.190971 209.251456 
L 356.359008 203.404861 
L 356.392616 203.476163 
L 356.426223 202.647301 
L 356.459831 203.467249 
L 356.560653 203.262258 
L 356.627868 207.112455 
L 356.72869 203.378124 
L 356.86312 199.928987 
L 356.963942 203.458334 
L 356.99755 201.604534 
L 357.031157 200.535036 
L 357.064765 202.272971 
L 357.165587 208.912783 
L 357.199194 207.620468 
L 357.232802 208.306733 
L 357.266409 207.201586 
L 357.333624 205.552769 
L 357.367231 206.007308 
L 357.400839 206.711395 
L 357.434446 206.408367 
L 357.468054 205.722108 
L 357.568876 209.474268 
L 357.669698 202.602735 
L 357.703306 204.884332 
L 357.804128 202.103637 
L 357.837736 202.674037 
L 357.871343 204.37632 
L 357.90495 203.609845 
L 357.938558 201.444107 
L 358.03938 201.907562 
L 358.106595 208.378035 
L 358.17381 207.219407 
L 358.442669 214.188978 
L 358.577099 210.329866 
L 358.610707 211.969768 
L 358.644314 211.746956 
L 358.677921 211.800429 
L 358.745136 213.012529 
L 358.778744 212.379743 
L 358.812351 209.420795 
L 358.879566 211.176556 
L 358.980388 209.643607 
L 359.114818 206.631179 
L 359.182033 207.397655 
L 359.282855 205.722108 
L 359.316463 206.755961 
L 359.35007 205.766674 
L 359.450892 203.592022 
L 359.518107 203.80592 
L 359.585322 205.499296 
L 359.719752 199.207076 
L 359.820574 200.133978 
L 359.921397 196.212478 
L 359.988611 197.994977 
L 360.022219 206.132083 
L 360.123041 203.939609 
L 360.156649 204.554573 
L 360.223863 203.823748 
L 360.257471 204.001997 
L 360.324686 201.925384 
L 360.358293 202.504698 
L 360.52633 204.322846 
L 360.627153 205.45473 
L 360.761582 208.903869 
L 360.828797 208.467158 
L 361.131264 206.167733 
L 361.164872 206.363809 
L 361.198479 202.593821 
L 361.265694 204.821944 
L 361.332909 205.071492 
L 361.366516 204.287196 
L 361.400124 204.688255 
L 361.534553 206.960945 
L 361.601768 205.18736 
L 361.668983 208.894954 
L 361.702591 206.283593 
L 361.803413 204.501095 
L 361.83702 204.510009 
L 361.870628 204.536744 
L 362.005058 195.9451 
L 362.072272 193.030718 
L 362.139487 194.144779 
L 362.173095 193.699155 
L 362.24031 193.734806 
L 362.374739 195.5886 
L 362.475562 196.907651 
L 362.643599 191.996865 
L 362.677206 191.881006 
L 362.811636 194.86669 
L 362.946066 191.257126 
L 362.979673 191.462117 
L 363.181318 178.556821 
L 363.214925 179.091576 
L 363.248533 181.168182 
L 363.315748 178.850935 
L 363.41657 179.715449 
L 363.551 176.809974 
L 363.651822 179.492637 
L 363.685429 179.332212 
L 363.719037 180.036299 
L 363.786252 179.840224 
L 363.819859 177.879477 
L 363.887074 178.2538 
L 363.987896 181.970308 
L 364.088719 176.141537 
L 364.122326 177.701224 
L 364.223148 181.390994 
L 364.256756 179.590674 
L 364.492008 182.93286 
L 364.59283 180.383886 
L 364.693652 181.114711 
L 364.760867 181.497948 
L 365.063334 172.906303 
L 365.096942 174.243177 
L 365.264979 177.202126 
L 365.332194 177.21104 
L 365.365801 177.656665 
L 365.399408 175.553316 
L 365.466623 176.827803 
L 365.500231 178.200327 
L 365.533838 175.84743 
L 365.701875 172.077441 
L 365.76909 174.162961 
L 365.802698 194.492367 
L 365.90352 192.264243 
L 365.937127 192.094904 
L 365.970735 190.79368 
L 366.004342 191.640363 
L 366.138772 194.082392 
L 366.306809 191.845354 
L 366.340417 191.613627 
L 366.407632 189.635052 
L 366.441239 190.490658 
L 366.474846 192.68313 
L 366.542061 192.656388 
L 366.575669 191.684929 
L 366.609276 193.610032 
L 366.642884 193.003982 
L 366.676491 193.476342 
L 366.777313 195.294493 
L 366.810921 193.601117 
L 366.878136 194.973641 
L 366.945351 195.080588 
L 367.046173 188.342744 
L 367.113388 188.681417 
L 367.180603 187.825817 
L 367.21421 188.128846 
L 367.281425 189.242907 
L 367.315032 188.770547 
L 367.449462 187.629741 
L 367.516677 188.084281 
L 367.617499 190.330234 
L 367.651107 189.528107 
L 367.785536 185.668995 
L 367.919966 188.084281 
L 367.987181 189.61723 
L 368.054396 188.333829 
L 368.088003 185.615522 
L 368.155218 189.064654 
L 368.222433 187.81691 
L 368.25604 189.198343 
L 368.356863 189.742005 
L 368.39047 186.640454 
L 368.424078 186.952396 
L 368.5249 193.244616 
L 368.558507 192.15729 
L 368.625722 191.979043 
L 368.827367 193.529816 
L 368.928189 192.531613 
L 368.961797 192.861378 
L 368.995404 193.307003 
L 369.029011 193.155493 
L 369.163441 190.651076 
L 369.197049 189.41224 
L 369.230656 191.399729 
L 369.264264 191.488853 
L 369.331478 193.797192 
L 369.432301 199.786383 
L 369.465908 197.76325 
L 369.533123 196.640274 
L 369.600338 196.827435 
L 369.633945 197.085899 
L 369.667553 196.66701 
L 369.70116 196.551151 
L 369.768375 195.544041 
L 369.801982 196.435291 
L 369.83559 197.344361 
L 369.869197 197.148287 
L 370.003627 194.314112 
L 370.070842 194.198253 
L 370.138057 196.141176 
L 370.205272 195.356879 
L 370.238879 196.087703 
L 370.339701 212.700593 
L 370.373309 212.602556 
L 370.440524 214.153328 
L 370.507739 213.556191 
L 370.608561 211.559796 
L 370.742991 206.105345 
L 370.776598 206.488583 
L 370.944635 212.584725 
L 370.978243 211.319153 
L 371.045458 211.791515 
L 371.079065 212.656027 
L 371.112672 212.00542 
L 371.247102 210.561593 
L 371.28071 210.62398 
L 371.448747 205.766674 
L 371.549569 207.362003 
L 371.751214 210.864614 
L 371.818429 210.000109 
L 371.852036 210.124882 
L 371.919251 211.738042 
L 371.952858 210.534857 
L 371.986466 210.347694 
L 372.053681 211.541965 
L 372.087288 211.256767 
L 372.120896 209.420795 
L 372.18811 210.704189 
L 372.221718 210.650716 
L 372.32254 207.852194 
L 372.45697 205.900354 
L 372.524185 207.050068 
L 372.557792 206.274684 
L 372.5914 204.474357 
L 372.658614 205.000198 
L 372.725829 205.704287 
L 372.759437 204.982369 
L 372.860259 205.704287 
L 372.893867 205.03585 
L 372.927474 206.337072 
L 372.994689 207.976967 
L 373.028296 207.094632 
L 373.162726 204.839773 
L 373.297156 207.165934 
L 373.330763 207.005509 
L 373.4988 205.624071 
L 373.532408 205.374521 
L 373.700445 206.755961 
L 373.734052 206.87182 
L 373.868482 208.886047 
L 373.935697 208.583019 
L 374.238164 204.171336 
L 374.338986 203.021624 
L 374.507023 200.26766 
L 374.540631 200.249836 
L 374.607846 201.212388 
L 374.843098 214.322667 
L 374.876705 214.135501 
L 374.94392 212.620377 
L 375.011135 213.172953 
L 375.044742 213.137303 
L 375.07835 213.235341 
L 375.111957 211.969768 
L 375.179172 212.994704 
L 375.21278 213.779003 
L 375.246387 212.210402 
L 375.414424 211.488494 
L 375.448032 211.541965 
L 375.515246 212.076715 
L 375.548854 211.773692 
L 375.582461 210.811142 
L 375.716891 214.973279 
L 375.750499 215.133704 
L 375.952143 211.506315 
L 376.052965 211.06069 
L 376.019358 211.613267 
L 376.153788 211.140906 
L 376.187395 209.946629 
L 376.25461 209.955543 
L 376.288217 210.410082 
L 376.489862 205.124973 
L 376.590684 209.082115 
L 376.624292 209.028644 
L 376.657899 208.565196 
L 376.758722 211.827165 
L 376.792329 211.533051 
L 376.859544 212.700593 
L 377.027581 210.169441 
L 377.094796 210.436818 
L 377.195618 209.652522 
L 377.229226 210.160534 
L 377.262833 209.197983 
L 377.296441 209.073208 
L 377.330048 208.48498 
L 377.363655 209.411881 
L 377.397263 209.420795 
L 377.531693 207.192671 
L 377.666122 204.777385 
L 377.69973 204.661519 
L 377.733337 204.064384 
L 377.766945 205.722108 
L 377.83416 205.392344 
L 377.901374 204.001997 
L 377.934982 204.804123 
L 378.002197 206.666831 
L 378.035804 205.445822 
L 378.069412 204.706084 
L 378.103019 206.381631 
L 378.136626 206.470754 
L 378.271056 202.879021 
L 378.338271 204.206988 
L 378.371878 203.369209 
L 378.405486 203.057274 
L 378.439093 203.493984 
L 378.472701 204.857594 
L 378.607131 197.442401 
L 378.640738 199.37641 
L 378.707953 198.663414 
L 378.909597 196.435291 
L 378.943205 196.533328 
L 379.111242 193.788278 
L 379.144849 193.075277 
L 379.212064 193.226794 
L 379.245672 193.360476 
L 379.279279 193.21788 
L 379.312887 192.816812 
L 379.480924 199.037737 
L 379.548139 198.110838 
L 379.581746 197.522617 
L 379.648961 198.075186 
L 379.749783 198.235611 
L 379.850606 196.355075 
L 379.91782 200.053762 
L 379.951428 199.98246 
L 380.119465 193.556551 
L 380.18668 194.394328 
L 380.220287 193.324825 
L 380.253895 191.586892 
L 380.287502 193.387219 
L 380.354717 191.676015 
L 380.388325 191.381908 
L 380.421932 191.970129 
L 380.455539 192.406839 
L 380.489147 191.560154 
L 380.522754 191.328428 
L 380.556362 191.51559 
L 380.690791 194.100215 
L 380.724399 193.841751 
L 380.758006 193.850665 
L 380.791614 193.511994 
L 380.825221 193.65459 
L 380.959651 194.634963 
L 381.094081 186.649368 
L 381.6318 181.836619 
L 381.665407 182.977426 
L 381.699015 182.317896 
L 381.732622 181.426646 
L 381.766229 182.923945 
L 381.967874 180.312584 
L 382.203126 177.184304 
L 382.035089 181.052323 
L 382.236734 177.21104 
L 382.337556 178.405311 
L 382.371163 178.316187 
L 382.404771 177.941864 
L 382.438378 178.850935 
L 382.471986 177.745788 
L 382.572808 174.608586 
L 382.640023 174.804663 
L 382.841667 182.522887 
L 382.908882 179.100485 
L 383.144134 162.942134 
L 383.211349 162.122187 
L 383.244957 163.004522 
L 383.278564 163.138211 
L 383.446601 158.67305 
L 383.480209 160.312952 
L 383.547423 158.931512 
L 383.614638 155.919091 
L 383.648246 157.960054 
L 383.681853 158.1383 
L 383.715461 159.822761 
L 383.749068 156.239942 
L 383.782676 156.195376 
L 383.917105 151.890647 
L 383.950713 152.72841 
L 384.017928 154.288097 
L 384.085142 150.928095 
L 384.152357 152.184746 
L 384.25318 158.093736 
L 384.286787 154.261359 
L 384.354002 151.168724 
L 384.387609 151.828252 
L 384.522039 154.546566 
L 384.555647 154.680248 
L 384.690076 156.685567 
L 384.824506 149.314936 
L 384.858113 150.80332 
L 384.992543 155.402159 
L 385.026151 155.027836 
L 385.059758 153.726619 
L 385.126973 153.904865 
L 385.261403 158.173952 
L 385.328618 156.703388 
L 385.362225 149.707075 
L 385.42944 151.69457 
L 385.463047 155.740837 
L 385.530262 152.612557 
L 385.731907 150.054662 
L 385.799122 150.473549 
L 385.832729 150.420076 
L 385.899944 151.338063 
L 385.933551 148.815825 
L 386.067981 151.355892 
L 386.202411 147.790894 
L 386.236018 149.26145 
L 386.370448 137.149374 
L 386.538485 143.423777 
L 386.6057 141.427373 
L 386.639308 142.924666 
L 386.773737 146.231207 
L 386.807345 145.990566 
L 386.840952 145.678636 
L 386.908167 142.354267 
L 386.975382 143.976348 
L 387.008989 143.575287 
L 387.042597 145.170619 
L 387.109812 144.689349 
L 387.177026 143.405948 
L 387.445886 159.501912 
L 387.580316 156.641001 
L 387.714745 152.772975 
L 387.815568 151.926291 
L 387.78196 153.067089 
L 387.849175 152.407559 
L 387.91639 155.313041 
L 387.983605 153.450333 
L 388.017212 153.387938 
L 388.05082 152.077802 
L 388.118035 152.09563 
L 388.151642 152.603635 
L 388.18525 151.445022 
L 388.218857 151.4361 
L 388.319679 149.421882 
L 388.386894 150.821137 
L 388.521324 139.618138 
L 388.554931 141.266941 
L 388.588539 140.990657 
L 388.622146 142.568172 
L 388.655754 141.008485 
L 388.689361 139.698347 
L 388.722969 143.022704 
L 388.823791 142.933588 
L 389.025435 134.324115 
L 389.09265 133.87849 
L 389.260687 130.215453 
L 389.327902 131.659273 
L 389.36151 133.780451 
L 389.395117 131.0354 
L 389.462332 133.441772 
L 389.563154 136.766142 
L 389.596762 136.097704 
L 389.731192 141.721487 
L 389.798406 141.195653 
L 389.832014 142.176019 
L 389.865621 140.865882 
L 389.932836 139.885515 
L 390.033658 150.527037 
L 390.100873 144.983463 
L 390.134481 140.135065 
L 390.201696 144.332842 
L 390.235303 149.154504 
L 390.336125 148.601934 
L 390.369733 145.402352 
L 390.470555 145.892529 
L 390.504163 146.008395 
L 390.638592 142.666209 
L 390.6722 143.708969 
L 390.705807 143.21878 
L 390.739415 143.691141 
L 390.840237 150.553772 
L 390.873844 147.086812 
L 390.974667 132.149462 
L 391.008274 136.766142 
L 391.041882 141.275862 
L 391.109096 139.529008 
L 391.176311 136.62354 
L 391.243526 141.186732 
L 391.277134 138.744717 
L 391.344348 134.956907 
L 391.377956 135.135155 
L 391.512386 138.949701 
L 391.71403 129.128128 
L 391.747638 130.465003 
L 391.781245 128.495348 
L 391.814853 129.814394 
L 391.84846 129.805487 
L 391.882067 129.457885 
L 391.915675 129.60941 
L 391.949282 133.575469 
L 392.016497 132.006861 
L 392.050105 131.962309 
L 392.285357 122.728963 
L 392.419786 129.60941 
L 392.453394 125.491829 
L 392.554216 125.50075 
L 392.587824 124.110389 
L 392.621431 127.550613 
L 392.688646 127.238683 
L 392.722253 124.493633 
L 392.755861 125.527486 
L 392.789468 130.447174 
L 392.856683 128.5399 
L 392.89029 128.896409 
L 392.923898 128.753805 
L 392.957505 127.613006 
L 393.02472 128.700332 
L 393.091935 129.359862 
L 393.15915 126.507853 
L 393.327187 136.543329 
L 393.360795 132.461407 
L 393.428009 137.060256 
L 393.562439 126.935662 
L 393.629654 131.0354 
L 393.663261 134.636057 
L 393.696869 130.482831 
L 393.730476 129.359862 
L 393.764084 132.800071 
L 393.831299 120.875164 
L 393.864906 123.691514 
L 393.932121 133.816109 
L 393.965728 129.074655 
L 393.999336 129.003354 
L 394.234588 115.046384 
L 394.301803 110.25147 
L 394.33541 113.15694 
L 394.369018 114.814664 
L 394.402625 113.263885 
L 394.436232 112.515239 
L 394.570662 118.165757 
L 394.60427 117.042788 
L 394.705092 113.139112 
L 394.738699 116.080236 
L 394.805914 119.502631 
L 394.873129 117.238864 
L 395.141989 109.609771 
L 395.242811 78.309081 
L 395.276418 82.284059 
L 395.310026 83.674406 
L 395.343633 80.965013 
L 395.377241 81.410638 
L 395.410848 76.811787 
L 395.51167 77.382187 
L 395.545278 80.804581 
L 395.612493 77.203941 
L 395.679708 77.417832 
L 395.746922 75.724463 
L 395.91496 84.868677 
L 395.948567 83.852653 
L 396.049389 79.895518 
L 396.284641 95.528026 
L 396.318249 93.228601 
L 396.385464 88.986259 
L 396.419071 91.802596 
L 396.486286 91.570877 
L 396.519893 94.315927 
L 396.721538 86.88291 
L 396.755146 87.221576 
L 396.889575 95.474555 
L 396.95679 94.244625 
L 396.990398 93.13947 
L 397.024005 94.191152 
L 397.09122 93.282074 
L 397.124827 98.700872 
L 397.158435 101.392449 
L 397.192042 100.608146 
L 397.494509 80.465916 
L 397.561724 79.111213 
L 397.595331 82.248414 
L 397.662546 81.107603 
L 397.830583 76.758316 
L 397.931406 65.7603 
L 397.965013 66.277214 
L 398.13305 69.539188 
L 398.301088 66.348515 
L 398.368302 68.986619 
L 398.435517 59.432423 
L 398.502732 61.05449 
L 398.53634 66.152439 
L 398.603554 64.441242 
L 398.637162 62.94395 
L 398.704377 64.619488 
L 398.737984 63.353915 
L 398.771592 63.389574 
L 398.805199 60.377146 
L 398.872414 60.751469 
L 398.973236 66.241569 
L 399.006844 65.403793 
L 399.208488 54.441421 
L 399.275703 57.881646 
L 399.309311 53.81755 
L 399.410133 54.994004 
L 399.477348 57.471678 
L 399.544563 56.491298 
L 399.611778 53.568 
L 399.779815 63.924315 
L 399.813422 59.165047 
L 399.914244 60.127598 
L 399.947852 61.286224 
L 399.981459 67.257593 
L 400.048674 105.545675 
L 400.115889 100.162521 
L 400.183104 111.766593 
L 400.250319 110.126697 
L 400.384749 104.387049 
L 400.451963 115.545496 
L 400.519178 111.017947 
L 400.552786 108.183766 
L 400.586393 111.196193 
L 400.620001 110.893172 
L 400.75443 119.627406 
L 400.821645 122.212038 
L 400.855253 124.671881 
L 400.88886 121.320789 
L 400.922467 122.853738 
L 400.989682 120.64343 
L 401.056897 108.807637 
L 401.124112 110.590136 
L 401.695438 95.296306 
L 401.729046 93.175129 
L 401.796261 95.938008 
L 402.031513 101.624169 
L 402.132335 96.45492 
L 402.165943 97.934398 
L 402.19955 98.344378 
L 402.233157 95.171531 
L 402.266765 109.948437 
L 402.367587 108.201595 
L 402.401195 107.98769 
L 402.434802 108.005518 
L 402.535624 110.376245 
L 402.602839 109.591942 
L 402.636447 109.930621 
L 402.737269 99.306929 
L 402.770876 100.982469 
L 402.804484 101.160715 
L 403.039736 110.304944 
L 403.174166 102.58672 
L 403.207773 102.426302 
L 403.274988 101.624169 
L 403.342203 104.369219 
L 403.476633 99.003893 
L 403.51024 101.641999 
L 403.543847 101.641999 
L 403.64467 101.535053 
L 403.711885 103.959253 
L 404.014352 97.542246 
L 404.316818 73.621113 
L 404.350426 74.066737 
L 404.417641 72.783336 
L 404.451248 73.852834 
L 404.484856 73.835018 
L 404.652893 67.311065 
L 404.6865 70.537398 
L 404.720108 70.341322 
L 404.854537 66.348515 
L 404.888145 66.384172 
L 404.95536 65.617698 
L 404.988967 64.77992 
L 405.056182 60.341501 
L 405.123397 61.624904 
L 405.157004 59.21852 
L 405.190612 59.325479 
L 405.257827 65.992021 
L 405.325041 64.886866 
L 405.358649 64.993825 
L 405.392256 64.922523 
L 405.493079 57.970776 
L 405.526686 58.612475 
L 405.560294 55.724822 
L 405.593901 58.986798 
L 405.627508 61.107977 
L 405.661116 58.862025 
L 405.694723 60.929717 
L 405.795546 56.740846 
L 405.829153 61.197094 
L 405.929975 60.28803 
L 405.963583 58.772895 
L 405.99719 63.068723 
L 406.098013 62.248775 
L 406.165227 57.026053 
L 406.198835 59.53937 
L 406.400479 64.583845 
L 406.434087 64.423425 
L 406.467694 66.259398 
L 406.501302 62.320077 
L 406.602124 62.836989 
L 406.568517 62.266591 
L 406.635731 62.658743 
L 406.669339 66.455474 
L 406.736554 63.763897 
L 406.870984 68.273616 
L 406.904591 66.295042 
L 406.938198 66.295042 
L 407.039021 70.679988 
L 407.072628 68.273616 
L 407.106236 70.555213 
L 407.139843 69.022264 
L 407.17345 67.293236 
L 407.207058 67.917122 
L 407.240665 70.483911 
L 407.30788 69.646149 
L 407.341488 68.131014 
L 407.341488 68.131014 
" clip-path="url(#p7427a92c35)" style="fill: none; stroke: #1f77b4; stroke-width: 1.5; stroke-linecap: square"/>
   </g>
   <g id="line2d_15">
    <path d="M 259.77124 269.892069 
L 260.779463 263.349509 
L 260.9475 263.354151 
L 261.686863 262.283026 
L 262.426227 261.037831 
L 262.863124 260.035175 
L 263.333628 259.606493 
L 263.804132 259.755963 
L 264.677925 260.473604 
L 264.87957 260.274002 
L 264.913177 260.369625 
L 265.887793 263.107432 
L 267.064053 262.021296 
L 267.400127 261.675825 
L 267.837024 261.132275 
L 268.240313 261.017601 
L 268.54278 261.257198 
L 268.912462 261.403215 
L 269.046892 261.336074 
L 269.483788 260.531424 
L 270.12233 259.422561 
L 270.660049 258.912024 
L 270.928908 258.575874 
L 271.16416 258.638856 
L 271.399412 258.655047 
L 271.903524 258.893456 
L 272.239598 258.70154 
L 272.945354 259.200789 
L 273.247821 259.125181 
L 273.617503 258.674803 
L 273.852755 258.651482 
L 274.424081 258.509922 
L 275.23066 257.787564 
L 275.970023 257.66472 
L 276.474135 257.417398 
L 277.280713 257.774938 
L 278.961085 259.537532 
L 279.599626 260.071539 
L 279.734056 260.020887 
L 280.036523 259.565904 
L 280.406205 258.926284 
L 280.775887 258.836862 
L 281.51525 258.762888 
L 282.725118 258.20556 
L 283.0948 258.210462 
L 283.565304 258.396287 
L 283.800556 258.463725 
L 284.13663 258.546314 
L 284.741564 258.406091 
L 286.321113 257.057779 
L 287.02687 256.243623 
L 287.766233 255.69699 
L 288.035093 256.204705 
L 288.707241 257.37447 
L 288.875279 257.421409 
L 289.211353 257.329907 
L 289.37939 257.421558 
L 289.614642 257.492115 
L 289.917109 257.382046 
L 290.118754 257.307478 
L 290.790902 256.988559 
L 290.95894 256.849375 
L 291.227799 256.742277 
L 292.034377 256.326955 
L 292.807348 255.109657 
L 292.975386 255.064054 
L 293.210638 255.290877 
L 293.613927 255.822508 
L 293.849179 255.817309 
L 294.218861 255.544735 
L 294.924617 254.524551 
L 295.563158 254.017579 
L 295.79841 254.026937 
L 296.201699 254.46157 
L 296.537774 254.698048 
L 296.840241 254.824754 
L 297.075493 254.710971 
L 297.848464 254.138937 
L 298.184538 254.319118 
L 298.655042 254.78747 
L 298.856687 254.75999 
L 299.360798 254.051446 
L 300.301807 251.808617 
L 300.604273 251.621306 
L 301.074778 251.690675 
L 302.251038 250.616422 
L 302.452682 250.707181 
L 302.721542 250.793484 
L 303.024009 250.52195 
L 303.52812 249.815932 
L 303.79698 249.508599 
L 304.099447 249.856632 
L 304.536343 250.507839 
L 304.805203 250.916476 
L 305.275707 250.496104 
L 305.611781 250.311021 
L 305.813426 250.208973 
L 306.216715 250.431043 
L 306.519182 250.359594 
L 306.653612 250.412921 
L 307.628227 251.182514 
L 308.602843 251.396266 
L 309.812711 250.778927 
L 310.652897 250.855574 
L 311.089793 250.53413 
L 311.358653 250.329737 
L 311.694727 250.312209 
L 312.635735 250.061026 
L 313.307884 249.964325 
L 313.610351 250.025524 
L 314.584966 249.262466 
L 315.122685 248.976969 
L 315.357937 249.036089 
L 316.298946 250.238978 
L 316.63502 249.750128 
L 317.206346 248.751334 
L 318.348999 247.203086 
L 318.517036 247.193579 
L 318.920326 247.499426 
L 319.222793 247.532848 
L 319.760511 247.31464 
L 320.365445 247.703077 
L 320.56709 247.771257 
L 321.205631 247.677527 
L 321.810565 247.995258 
L 322.617143 248.967165 
L 323.154862 248.549318 
L 323.759796 247.900934 
L 323.927833 247.819385 
L 324.398338 247.658514 
L 324.868842 247.79844 
L 325.104094 247.938218 
L 325.608205 248.748661 
L 325.843457 248.988407 
L 327.25497 250.267944 
L 327.658259 249.913078 
L 327.893511 249.531029 
L 328.027941 249.066391 
L 328.868126 245.215599 
L 329.136986 244.50052 
L 329.708312 243.151169 
L 330.246031 241.879504 
L 330.514891 241.864947 
L 330.951787 242.60201 
L 331.455899 243.862386 
L 331.489506 243.827181 
L 331.791973 243.932052 
L 331.926403 244.190068 
L 332.497729 245.811845 
L 333.069056 246.942841 
L 333.169878 246.963488 
L 333.505952 247.503437 
L 333.707597 247.538047 
L 333.909242 247.404805 
L 335.186324 243.595753 
L 335.219932 243.644475 
L 335.455184 243.877982 
L 335.589613 243.687404 
L 335.757651 243.587584 
L 335.992903 243.649674 
L 336.16094 243.737759 
L 336.597837 243.193503 
L 337.034733 242.789767 
L 337.639667 241.451704 
L 337.774097 241.352182 
L 338.345423 240.554959 
L 338.479853 240.43063 
L 338.748712 240.244061 
L 339.353646 240.864816 
L 339.756935 241.432097 
L 339.790543 241.408182 
L 339.924973 241.248499 
L 340.361869 240.326205 
L 340.865981 238.446263 
L 342.277493 232.448897 
L 342.680782 231.034781 
L 343.050464 229.820602 
L 343.184894 229.634628 
L 343.218501 229.648888 
L 343.386538 229.648739 
L 343.588183 229.570458 
L 343.689005 229.50406 
L 343.89065 229.162117 
L 344.159509 228.204172 
L 344.798051 225.057319 
L 345.134125 224.272426 
L 345.436592 224.116308 
L 345.571022 224.305253 
L 345.806274 224.602188 
L 346.108741 224.223704 
L 346.209563 223.973709 
L 346.915319 221.263716 
L 347.587468 219.185025 
L 347.82272 218.820207 
L 347.95715 218.538275 
L 348.158794 218.04482 
L 348.293224 218.016894 
L 348.326831 217.994019 
L 348.360439 218.047494 
L 348.394046 218.161277 
L 348.461261 218.081955 
L 349.301447 211.69645 
L 349.469484 210.71667 
L 349.570307 210.906506 
L 350.074418 211.560683 
L 350.108025 211.496513 
L 350.242455 211.205075 
L 350.376885 210.28679 
L 351.553145 196.839619 
L 351.687575 196.270407 
L 352.527761 191.620759 
L 352.662191 191.528069 
L 352.695798 191.614223 
L 352.863835 191.758903 
L 352.964657 192.006967 
L 353.603199 194.305202 
L 353.670414 194.403537 
L 353.704021 194.36046 
L 353.872058 194.239844 
L 353.972881 194.01822 
L 354.342562 192.286225 
L 354.544207 191.916654 
L 354.611422 192.016176 
L 354.745852 192.334352 
L 355.048318 193.190843 
L 355.081926 193.168265 
L 355.451608 192.370597 
L 355.485215 192.471308 
L 355.787682 195.592464 
L 356.190971 202.759001 
L 356.527046 207.195047 
L 356.695083 207.231291 
L 356.829513 206.622568 
L 357.232802 204.07092 
L 357.501661 204.578635 
L 357.636091 205.028716 
L 357.669698 204.941373 
L 357.703306 204.813331 
L 357.770521 204.860864 
L 357.871343 204.973458 
L 357.938558 205.184387 
L 358.005773 205.064663 
L 358.072988 205.122594 
L 358.17381 205.322828 
L 358.207417 205.266382 
L 358.274632 205.410468 
L 358.946781 209.977231 
L 359.114818 210.914231 
L 359.148426 210.856002 
L 359.249248 210.779058 
L 359.450892 209.328698 
L 360.156649 202.943787 
L 360.627153 202.099774 
L 360.828797 203.56885 
L 361.164872 205.637736 
L 361.736198 206.520667 
L 361.937843 205.501375 
L 363.450177 188.351062 
L 363.987896 180.358634 
L 364.189541 178.823606 
L 364.223148 178.895797 
L 364.928904 180.448947 
L 364.962512 180.418644 
L 365.533838 178.184877 
L 365.802698 176.100245 
L 365.836305 176.565477 
L 366.172379 181.757599 
L 366.911743 192.621039 
L 367.046173 192.910101 
L 367.07978 192.768689 
L 367.886359 189.198047 
L 368.121611 188.149343 
L 368.289648 188.149046 
L 368.457685 188.163009 
L 369.264264 191.589565 
L 369.398693 192.125206 
L 369.667553 193.831057 
L 370.037235 194.984334 
L 370.205272 195.571964 
L 370.306094 196.620668 
L 370.776598 203.710261 
L 371.079065 208.103824 
L 371.28071 211.291229 
L 371.347925 211.181011 
L 371.650391 209.730354 
L 371.751214 209.788285 
L 371.919251 210.126366 
L 371.952858 210.148647 
L 371.986466 210.080318 
L 372.625007 209.329589 
L 373.330763 206.149314 
L 373.599623 205.939276 
L 373.63323 205.992454 
L 373.801267 206.216158 
L 374.002912 206.711989 
L 374.036519 206.657326 
L 374.372594 206.103563 
L 374.675061 204.707867 
L 374.742275 204.899188 
L 375.21278 207.722072 
L 375.851321 212.967669 
L 375.884928 212.926077 
L 376.221003 212.387465 
L 376.657899 210.801041 
L 376.893151 210.070811 
L 377.262833 209.680444 
L 377.43087 209.640932 
L 377.531693 209.883055 
L 377.598907 209.746397 
L 377.83416 208.558064 
L 379.144849 199.588529 
L 379.480924 196.398153 
L 379.615354 196.205644 
L 379.716176 196.159001 
L 379.91782 196.15603 
L 380.05225 196.45757 
L 380.085858 196.448063 
L 380.153073 196.398153 
L 380.18668 196.439447 
L 380.32111 196.430832 
L 380.388325 196.333686 
L 380.489147 195.878851 
L 380.858829 193.918697 
L 380.959651 193.493571 
L 381.194903 191.754743 
L 381.967874 184.266168 
L 382.236734 181.965854 
L 382.740845 178.721409 
L 383.076919 177.346805 
L 383.614638 168.528783 
L 384.387609 155.712616 
L 384.622861 154.572114 
L 384.690076 154.511806 
L 384.757291 154.270277 
L 384.925328 153.570052 
L 384.958936 153.683241 
L 385.227795 154.076282 
L 385.29501 154.011518 
L 385.362225 154.268792 
L 385.42944 154.149959 
L 386.168803 151.890344 
L 386.269626 151.31014 
L 386.6057 146.605829 
L 386.975382 144.327201 
L 387.244241 142.913679 
L 387.277849 143.043802 
L 387.849175 150.858574 
L 388.151642 153.61907 
L 388.252464 154.323454 
L 388.319679 154.111634 
L 388.454109 153.258708 
L 389.630369 136.374582 
L 389.865621 136.257234 
L 390.000051 136.313086 
L 390.100873 137.56143 
L 390.873844 145.007225 
L 390.941059 145.306685 
L 390.974667 145.213698 
L 391.277134 143.214922 
L 391.5796 140.256271 
L 392.688646 128.077051 
L 393.192757 126.81207 
L 393.226365 126.987943 
L 393.797691 130.829823 
L 393.898514 130.090086 
L 393.932121 130.216643 
L 394.032943 130.476889 
L 394.066551 130.368156 
L 394.268195 127.686684 
L 394.805914 118.171109 
L 394.906737 117.762323 
L 395.377241 108.300224 
L 396.183819 80.334005 
L 396.284641 81.015515 
L 397.259257 92.576208 
L 397.360079 92.50372 
L 397.561724 90.731916 
L 398.032228 83.733824 
L 398.771592 67.198176 
L 398.973236 65.122159 
L 399.040451 65.053236 
L 399.309311 62.70212 
L 399.645385 59.706928 
L 399.981459 58.839445 
L 400.015067 58.873312 
L 400.384749 76.117801 
L 400.922467 106.374532 
L 401.124112 113.086234 
L 401.191327 113.56335 
L 401.258542 113.334001 
L 401.292149 113.22408 
L 401.359364 113.249629 
L 401.426579 113.279337 
L 401.527401 112.491473 
L 401.695438 110.298999 
L 402.266765 99.847021 
L 402.300372 99.951 
L 402.401195 100.132221 
L 402.602839 101.334813 
L 402.905306 103.740592 
L 403.039736 104.709083 
L 403.274988 106.13033 
L 403.745492 103.109588 
L 403.879922 103.304475 
L 403.947137 103.259913 
L 404.081566 101.882635 
L 404.215996 100.059138 
L 405.022575 74.739336 
L 405.325041 67.477436 
L 405.560294 64.655147 
L 405.829153 61.781757 
L 406.030798 60.651653 
L 406.098013 60.765733 
L 406.13162 60.793065 
L 406.333265 60.414581 
L 406.434087 60.289805 
L 407.341488 66.32178 
L 407.341488 66.32178 
" clip-path="url(#p7427a92c35)" style="fill: none; stroke: #ff7f0e; stroke-width: 1.5; stroke-linecap: square"/>
   </g>
   <g id="line2d_16">
    <path d="M 259.77124 269.892069 
L 262.560657 267.490389 
L 264.140206 265.760704 
L 265.350074 264.626837 
L 266.391904 263.7916 
L 267.736202 262.534398 
L 268.946069 261.479097 
L 269.517396 261.247101 
L 271.130553 260.654111 
L 272.273206 260.522825 
L 273.012569 260.473167 
L 273.852755 260.321601 
L 274.188829 260.184959 
L 276.574957 258.98136 
L 278.423366 258.494358 
L 279.229945 258.554831 
L 280.137345 258.616377 
L 284.170238 258.577129 
L 286.186684 258.590332 
L 287.228514 258.28843 
L 288.572812 257.816827 
L 292.404059 257.024952 
L 293.513105 256.678487 
L 294.521328 256.352983 
L 296.336129 255.926652 
L 297.277137 255.703757 
L 298.184538 255.412962 
L 299.428013 254.982967 
L 305.510959 251.909675 
L 307.292153 251.173222 
L 308.165946 250.881602 
L 308.871702 250.78647 
L 312.131624 250.625929 
L 314.316107 250.521042 
L 317.407991 249.94277 
L 320.634305 248.781257 
L 322.986825 248.365919 
L 324.902449 248.022755 
L 325.507383 247.962859 
L 326.717251 248.162219 
L 327.691866 248.436542 
L 328.263193 248.393267 
L 329.103378 248.105756 
L 330.010779 247.54856 
L 330.615713 247.195427 
L 332.598552 246.42514 
L 333.40513 246.412646 
L 333.774812 246.372194 
L 334.413353 246.128206 
L 335.791258 245.200762 
L 336.429799 244.732361 
L 338.379031 243.733683 
L 339.118394 243.642247 
L 339.723328 243.584778 
L 340.496299 243.195962 
L 340.933196 242.858112 
L 341.571737 241.952785 
L 342.277493 240.781204 
L 344.058687 237.596621 
L 344.999695 235.609003 
L 348.226009 228.300427 
L 348.730121 226.751551 
L 349.771951 223.528975 
L 350.511315 221.287499 
L 351.822005 216.156708 
L 353.569591 209.464728 
L 355.787682 202.291028 
L 356.930335 200.685426 
L 357.535269 199.877657 
L 357.90495 199.671514 
L 358.409062 199.480589 
L 359.114818 199.444114 
L 359.4845 199.389715 
L 359.955004 199.590906 
L 360.123041 199.641278 
L 360.52633 199.978633 
L 360.828797 200.437923 
L 361.534553 201.589979 
L 362.038665 202.196391 
L 362.778029 202.122484 
L 363.114103 202.134103 
L 363.450177 201.697787 
L 364.424793 200.248417 
L 364.626437 199.956979 
L 365.029727 198.699657 
L 365.802698 196.054857 
L 366.340417 195.396884 
L 366.945351 194.559539 
L 367.247817 194.095 
L 367.651107 193.046626 
L 368.726545 190.834413 
L 369.902805 189.715499 
L 370.272487 189.233564 
L 370.306094 189.269577 
L 370.843813 189.588248 
L 371.079065 189.849252 
L 372.32254 192.33673 
L 375.784106 202.180085 
L 378.069412 206.92272 
L 378.640738 207.476681 
L 379.178457 207.513288 
L 379.380102 207.398218 
L 379.91782 206.601771 
L 380.18668 206.148885 
L 381.396548 203.57281 
L 382.67363 199.875412 
L 383.345779 197.285508 
L 384.11875 192.985064 
L 387.882783 169.029104 
L 388.924613 163.391819 
L 390.6722 153.617684 
L 391.882067 148.065497 
L 392.453394 145.468034 
L 393.125543 143.298369 
L 394.33541 139.71723 
L 394.940344 137.255962 
L 395.242811 135.808012 
L 396.150212 129.488657 
L 397.864191 117.891786 
L 400.317534 98.196262 
L 400.720823 97.052162 
L 401.392972 95.932983 
L 401.762653 94.867841 
L 402.535624 92.449188 
L 403.308595 90.626154 
L 404.182389 89.2669 
L 404.384033 88.877192 
L 405.224219 87.720615 
L 405.661116 86.291579 
L 406.870984 82.736022 
L 407.039021 82.668749 
L 407.341488 82.723676 
L 407.341488 82.723676 
" clip-path="url(#p7427a92c35)" style="fill: none; stroke: #2ca02c; stroke-width: 1.5; stroke-linecap: square"/>
   </g>
   <g id="line2d_17">
    <path d="M 259.77124 295.488 
L 407.341488 135.304956 
L 407.341488 135.304956 
" clip-path="url(#p7427a92c35)" style="fill: none; stroke: #d62728; stroke-width: 1.5; stroke-linecap: square"/>
   </g>
   <g id="patch_3">
    <path d="M 252.392727 307.584 
L 252.392727 41.472 
" style="fill: none; stroke: #000000; stroke-width: 0.8; stroke-linejoin: miter; stroke-linecap: square"/>
   </g>
   <g id="patch_4">
    <path d="M 414.72 307.584 
L 414.72 41.472 
" style="fill: none; stroke: #000000; stroke-width: 0.8; stroke-linejoin: miter; stroke-linecap: square"/>
   </g>
   <g id="patch_5">
    <path d="M 252.392727 307.584 
L 414.72 307.584 
" style="fill: none; stroke: #000000; stroke-width: 0.8; stroke-linejoin: miter; stroke-linecap: square"/>
   </g>
   <g id="patch_6">
    <path d="M 252.392727 41.472 
L 414.72 41.472 
" style="fill: none; stroke: #000000; stroke-width: 0.8; stroke-linejoin: miter; stroke-linecap: square"/>
   </g>
   <g id="legend_1">
    <g id="patch_7">
     <path d="M 259.392727 108.1845 
L 369.298977 108.1845 
Q 371.298977 108.1845 371.298977 106.1845 
L 371.298977 48.472 
Q 371.298977 46.472 369.298977 46.472 
L 259.392727 46.472 
Q 257.392727 46.472 257.392727 48.472 
L 257.392727 106.1845 
Q 257.392727 108.1845 259.392727 108.1845 
z
" style="fill: #ffffff; opacity: 0.8; stroke: #cccccc; stroke-linejoin: miter"/>
    </g>
    <g id="line2d_18">
     <path d="M 261.392727 54.570438 
L 271.392727 54.570438 
L 281.392727 54.570438 
" style="fill: none; stroke: #1f77b4; stroke-width: 1.5; stroke-linecap: square"/>
    </g>
    <g id="text_16">
     <!-- Adjusted closes -->
     <g transform="translate(289.392727 58.070438) scale(0.1 -0.1)">
      <defs>
       <path id="DejaVuSans-41" d="M 2188 4044 
L 1331 1722 
L 3047 1722 
L 2188 4044 
z
M 1831 4666 
L 2547 4666 
L 4325 0 
L 3669 0 
L 3244 1197 
L 1141 1197 
L 716 0 
L 50 0 
L 1831 4666 
z
" transform="scale(0.015625)"/>
       <path id="DejaVuSans-64" d="M 2906 2969 
L 2906 4863 
L 3481 4863 
L 3481 0 
L 2906 0 
L 2906 525 
Q 2725 213 2448 61 
Q 2172 -91 1784 -91 
Q 1150 -91 751 415 
Q 353 922 353 1747 
Q 353 2572 751 3078 
Q 1150 3584 1784 3584 
Q 2172 3584 2448 3432 
Q 2725 3281 2906 2969 
z
M 947 1747 
Q 947 1113 1208 752 
Q 1469 391 1925 391 
Q 2381 391 2643 752 
Q 2906 1113 2906 1747 
Q 2906 2381 2643 2742 
Q 2381 3103 1925 3103 
Q 1469 3103 1208 2742 
Q 947 2381 947 1747 
z
" transform="scale(0.015625)"/>
       <path id="DejaVuSans-6a" d="M 603 3500 
L 1178 3500 
L 1178 -63 
Q 1178 -731 923 -1031 
Q 669 -1331 103 -1331 
L -116 -1331 
L -116 -844 
L 38 -844 
Q 366 -844 484 -692 
Q 603 -541 603 -63 
L 603 3500 
z
M 603 4863 
L 1178 4863 
L 1178 4134 
L 603 4134 
L 603 4863 
z
" transform="scale(0.015625)"/>
       <path id="DejaVuSans-63" d="M 3122 3366 
L 3122 2828 
Q 2878 2963 2633 3030 
Q 2388 3097 2138 3097 
Q 1578 3097 1268 2742 
Q 959 2388 959 1747 
Q 959 1106 1268 751 
Q 1578 397 2138 397 
Q 2388 397 2633 464 
Q 2878 531 3122 666 
L 3122 134 
Q 2881 22 2623 -34 
Q 2366 -91 2075 -91 
Q 1284 -91 818 406 
Q 353 903 353 1747 
Q 353 2603 823 3093 
Q 1294 3584 2113 3584 
Q 2378 3584 2631 3529 
Q 2884 3475 3122 3366 
z
" transform="scale(0.015625)"/>
      </defs>
      <use xlink:href="#DejaVuSans-41"/>
      <use xlink:href="#DejaVuSans-64" x="66.658203"/>
      <use xlink:href="#DejaVuSans-6a" x="130.134766"/>
      <use xlink:href="#DejaVuSans-75" x="157.917969"/>
      <use xlink:href="#DejaVuSans-73" x="221.296875"/>
      <use xlink:href="#DejaVuSans-74" x="273.396484"/>
      <use xlink:href="#DejaVuSans-65" x="312.605469"/>
      <use xlink:href="#DejaVuSans-64" x="374.128906"/>
      <use xlink:href="#DejaVuSans-20" x="437.605469"/>
      <use xlink:href="#DejaVuSans-63" x="469.392578"/>
      <use xlink:href="#DejaVuSans-6c" x="524.373047"/>
      <use xlink:href="#DejaVuSans-6f" x="552.15625"/>
      <use xlink:href="#DejaVuSans-73" x="613.337891"/>
      <use xlink:href="#DejaVuSans-65" x="665.4375"/>
      <use xlink:href="#DejaVuSans-73" x="726.960938"/>
     </g>
    </g>
    <g id="line2d_19">
     <path d="M 261.392727 69.248563 
L 271.392727 69.248563 
L 281.392727 69.248563 
" style="fill: none; stroke: #ff7f0e; stroke-width: 1.5; stroke-linecap: square"/>
    </g>
    <g id="text_17">
     <!-- 30-days MA -->
     <g transform="translate(289.392727 72.748563) scale(0.1 -0.1)">
      <defs>
       <path id="DejaVuSans-2d" d="M 313 2009 
L 1997 2009 
L 1997 1497 
L 313 1497 
L 313 2009 
z
" transform="scale(0.015625)"/>
       <path id="DejaVuSans-79" d="M 2059 -325 
Q 1816 -950 1584 -1140 
Q 1353 -1331 966 -1331 
L 506 -1331 
L 506 -850 
L 844 -850 
Q 1081 -850 1212 -737 
Q 1344 -625 1503 -206 
L 1606 56 
L 191 3500 
L 800 3500 
L 1894 763 
L 2988 3500 
L 3597 3500 
L 2059 -325 
z
" transform="scale(0.015625)"/>
       <path id="DejaVuSans-4d" d="M 628 4666 
L 1569 4666 
L 2759 1491 
L 3956 4666 
L 4897 4666 
L 4897 0 
L 4281 0 
L 4281 4097 
L 3078 897 
L 2444 897 
L 1241 4097 
L 1241 0 
L 628 0 
L 628 4666 
z
" transform="scale(0.015625)"/>
      </defs>
      <use xlink:href="#DejaVuSans-33"/>
      <use xlink:href="#DejaVuSans-30" x="63.623047"/>
      <use xlink:href="#DejaVuSans-2d" x="127.246094"/>
      <use xlink:href="#DejaVuSans-64" x="163.330078"/>
      <use xlink:href="#DejaVuSans-61" x="226.806641"/>
      <use xlink:href="#DejaVuSans-79" x="288.085938"/>
      <use xlink:href="#DejaVuSans-73" x="347.265625"/>
      <use xlink:href="#DejaVuSans-20" x="399.365234"/>
      <use xlink:href="#DejaVuSans-4d" x="431.152344"/>
      <use xlink:href="#DejaVuSans-41" x="517.431641"/>
     </g>
    </g>
    <g id="line2d_20">
     <path d="M 261.392727 83.926688 
L 271.392727 83.926688 
L 281.392727 83.926688 
" style="fill: none; stroke: #2ca02c; stroke-width: 1.5; stroke-linecap: square"/>
    </g>
    <g id="text_18">
     <!-- 9-months MA -->
     <g transform="translate(289.392727 87.426688) scale(0.1 -0.1)">
      <defs>
       <path id="DejaVuSans-39" d="M 703 97 
L 703 672 
Q 941 559 1184 500 
Q 1428 441 1663 441 
Q 2288 441 2617 861 
Q 2947 1281 2994 2138 
Q 2813 1869 2534 1725 
Q 2256 1581 1919 1581 
Q 1219 1581 811 2004 
Q 403 2428 403 3163 
Q 403 3881 828 4315 
Q 1253 4750 1959 4750 
Q 2769 4750 3195 4129 
Q 3622 3509 3622 2328 
Q 3622 1225 3098 567 
Q 2575 -91 1691 -91 
Q 1453 -91 1209 -44 
Q 966 3 703 97 
z
M 1959 2075 
Q 2384 2075 2632 2365 
Q 2881 2656 2881 3163 
Q 2881 3666 2632 3958 
Q 2384 4250 1959 4250 
Q 1534 4250 1286 3958 
Q 1038 3666 1038 3163 
Q 1038 2656 1286 2365 
Q 1534 2075 1959 2075 
z
" transform="scale(0.015625)"/>
      </defs>
      <use xlink:href="#DejaVuSans-39"/>
      <use xlink:href="#DejaVuSans-2d" x="63.623047"/>
      <use xlink:href="#DejaVuSans-6d" x="99.707031"/>
      <use xlink:href="#DejaVuSans-6f" x="197.119141"/>
      <use xlink:href="#DejaVuSans-6e" x="258.300781"/>
      <use xlink:href="#DejaVuSans-74" x="321.679688"/>
      <use xlink:href="#DejaVuSans-68" x="360.888672"/>
      <use xlink:href="#DejaVuSans-73" x="424.267578"/>
      <use xlink:href="#DejaVuSans-20" x="476.367188"/>
      <use xlink:href="#DejaVuSans-4d" x="508.154297"/>
      <use xlink:href="#DejaVuSans-41" x="594.433594"/>
     </g>
    </g>
    <g id="line2d_21">
     <path d="M 261.392727 98.604813 
L 271.392727 98.604813 
L 281.392727 98.604813 
" style="fill: none; stroke: #d62728; stroke-width: 1.5; stroke-linecap: square"/>
    </g>
    <g id="text_19">
     <!-- OLS prediction -->
     <g transform="translate(289.392727 102.104813) scale(0.1 -0.1)">
      <defs>
       <path id="DejaVuSans-4c" d="M 628 4666 
L 1259 4666 
L 1259 531 
L 3531 531 
L 3531 0 
L 628 0 
L 628 4666 
z
" transform="scale(0.015625)"/>
       <path id="DejaVuSans-70" d="M 1159 525 
L 1159 -1331 
L 581 -1331 
L 581 3500 
L 1159 3500 
L 1159 2969 
Q 1341 3281 1617 3432 
Q 1894 3584 2278 3584 
Q 2916 3584 3314 3078 
Q 3713 2572 3713 1747 
Q 3713 922 3314 415 
Q 2916 -91 2278 -91 
Q 1894 -91 1617 61 
Q 1341 213 1159 525 
z
M 3116 1747 
Q 3116 2381 2855 2742 
Q 2594 3103 2138 3103 
Q 1681 3103 1420 2742 
Q 1159 2381 1159 1747 
Q 1159 1113 1420 752 
Q 1681 391 2138 391 
Q 2594 391 2855 752 
Q 3116 1113 3116 1747 
z
" transform="scale(0.015625)"/>
      </defs>
      <use xlink:href="#DejaVuSans-4f"/>
      <use xlink:href="#DejaVuSans-4c" x="78.710938"/>
      <use xlink:href="#DejaVuSans-53" x="134.423828"/>
      <use xlink:href="#DejaVuSans-20" x="197.900391"/>
      <use xlink:href="#DejaVuSans-70" x="229.6875"/>
      <use xlink:href="#DejaVuSans-72" x="293.164062"/>
      <use xlink:href="#DejaVuSans-65" x="332.027344"/>
      <use xlink:href="#DejaVuSans-64" x="393.550781"/>
      <use xlink:href="#DejaVuSans-69" x="457.027344"/>
      <use xlink:href="#DejaVuSans-63" x="484.810547"/>
      <use xlink:href="#DejaVuSans-74" x="539.791016"/>
      <use xlink:href="#DejaVuSans-69" x="579"/>
      <use xlink:href="#DejaVuSans-6f" x="606.783203"/>
      <use xlink:href="#DejaVuSans-6e" x="667.964844"/>
     </g>
    </g>
   </g>
  </g>
  <g id="text_20">
   <!-- Predictions of NYSE ticker EW -->
   <g transform="translate(141.848437 16.030125) scale(0.12 -0.12)">
    <defs>
     <path id="DejaVuSans-50" d="M 1259 4147 
L 1259 2394 
L 2053 2394 
Q 2494 2394 2734 2622 
Q 2975 2850 2975 3272 
Q 2975 3691 2734 3919 
Q 2494 4147 2053 4147 
L 1259 4147 
z
M 628 4666 
L 2053 4666 
Q 2838 4666 3239 4311 
Q 3641 3956 3641 3272 
Q 3641 2581 3239 2228 
Q 2838 1875 2053 1875 
L 1259 1875 
L 1259 0 
L 628 0 
L 628 4666 
z
" transform="scale(0.015625)"/>
     <path id="DejaVuSans-66" d="M 2375 4863 
L 2375 4384 
L 1825 4384 
Q 1516 4384 1395 4259 
Q 1275 4134 1275 3809 
L 1275 3500 
L 2222 3500 
L 2222 3053 
L 1275 3053 
L 1275 0 
L 697 0 
L 697 3053 
L 147 3053 
L 147 3500 
L 697 3500 
L 697 3744 
Q 697 4328 969 4595 
Q 1241 4863 1831 4863 
L 2375 4863 
z
" transform="scale(0.015625)"/>
     <path id="DejaVuSans-4e" d="M 628 4666 
L 1478 4666 
L 3547 763 
L 3547 4666 
L 4159 4666 
L 4159 0 
L 3309 0 
L 1241 3903 
L 1241 0 
L 628 0 
L 628 4666 
z
" transform="scale(0.015625)"/>
     <path id="DejaVuSans-59" d="M -13 4666 
L 666 4666 
L 1959 2747 
L 3244 4666 
L 3922 4666 
L 2272 2222 
L 2272 0 
L 1638 0 
L 1638 2222 
L -13 4666 
z
" transform="scale(0.015625)"/>
     <path id="DejaVuSans-45" d="M 628 4666 
L 3578 4666 
L 3578 4134 
L 1259 4134 
L 1259 2753 
L 3481 2753 
L 3481 2222 
L 1259 2222 
L 1259 531 
L 3634 531 
L 3634 0 
L 628 0 
L 628 4666 
z
" transform="scale(0.015625)"/>
     <path id="DejaVuSans-6b" d="M 581 4863 
L 1159 4863 
L 1159 1991 
L 2875 3500 
L 3609 3500 
L 1753 1863 
L 3688 0 
L 2938 0 
L 1159 1709 
L 1159 0 
L 581 0 
L 581 4863 
z
" transform="scale(0.015625)"/>
     <path id="DejaVuSans-57" d="M 213 4666 
L 850 4666 
L 1831 722 
L 2809 4666 
L 3519 4666 
L 4500 722 
L 5478 4666 
L 6119 4666 
L 4947 0 
L 4153 0 
L 3169 4050 
L 2175 0 
L 1381 0 
L 213 4666 
z
" transform="scale(0.015625)"/>
    </defs>
    <use xlink:href="#DejaVuSans-50"/>
    <use xlink:href="#DejaVuSans-72" x="58.552734"/>
    <use xlink:href="#DejaVuSans-65" x="97.416016"/>
    <use xlink:href="#DejaVuSans-64" x="158.939453"/>
    <use xlink:href="#DejaVuSans-69" x="222.416016"/>
    <use xlink:href="#DejaVuSans-63" x="250.199219"/>
    <use xlink:href="#DejaVuSans-74" x="305.179688"/>
    <use xlink:href="#DejaVuSans-69" x="344.388672"/>
    <use xlink:href="#DejaVuSans-6f" x="372.171875"/>
    <use xlink:href="#DejaVuSans-6e" x="433.353516"/>
    <use xlink:href="#DejaVuSans-73" x="496.732422"/>
    <use xlink:href="#DejaVuSans-20" x="548.832031"/>
    <use xlink:href="#DejaVuSans-6f" x="580.619141"/>
    <use xlink:href="#DejaVuSans-66" x="641.800781"/>
    <use xlink:href="#DejaVuSans-20" x="677.005859"/>
    <use xlink:href="#DejaVuSans-4e" x="708.792969"/>
    <use xlink:href="#DejaVuSans-59" x="783.597656"/>
    <use xlink:href="#DejaVuSans-53" x="844.681641"/>
    <use xlink:href="#DejaVuSans-45" x="908.158203"/>
    <use xlink:href="#DejaVuSans-20" x="971.341797"/>
    <use xlink:href="#DejaVuSans-74" x="1003.128906"/>
    <use xlink:href="#DejaVuSans-69" x="1042.337891"/>
    <use xlink:href="#DejaVuSans-63" x="1070.121094"/>
    <use xlink:href="#DejaVuSans-6b" x="1125.101562"/>
    <use xlink:href="#DejaVuSans-65" x="1179.386719"/>
    <use xlink:href="#DejaVuSans-72" x="1240.910156"/>
    <use xlink:href="#DejaVuSans-20" x="1282.023438"/>
    <use xlink:href="#DejaVuSans-45" x="1313.810547"/>
    <use xlink:href="#DejaVuSans-57" x="1376.994141"/>
   </g>
  </g>
 </g>
 <defs>
  <clipPath id="p7427a92c35">
   <rect x="252.392727" y="41.472" width="162.327273" height="266.112"/>
  </clipPath>
 </defs>
</svg>
